<?xml version="1.0" standalone="no"?>
<!DOCTYPE svg PUBLIC "-//W3C//DTD SVG 20010904//EN"
 "http://www.w3.org/TR/2001/REC-SVG-20010904/DTD/svg10.dtd">
<svg version="1.0" xmlns="http://www.w3.org/2000/svg"
 width="842.000000pt" height="481.000000pt" viewBox="0 0 842.000000 481.000000"
 preserveAspectRatio="xMidYMid meet">

<g transform="translate(0.000000,481.000000) scale(0.100000,-0.100000)"
fill="#000000" stroke="none">
<path d="M876 4802 c-9 -14 29 -134 39 -125 5 4 4 1 -2 -7 -9 -12 -5 -41 15
-128 15 -63 31 -110 36 -105 5 4 3 -2 -3 -14 -8 -15 -8 -23 -1 -23 5 0 10 -9
10 -20 0 -12 10 -24 23 -30 18 -7 19 -9 3 -9 -12 -1 -16 -6 -12 -17 3 -9 6
-20 6 -25 0 -5 10 -14 23 -19 18 -7 19 -9 3 -9 -12 -1 -16 -6 -12 -17 3 -9 6
-20 6 -26 0 -6 7 -7 16 -4 8 3 13 2 9 -3 -3 -5 1 -12 7 -14 7 -3 2 -6 -11 -6
-19 -1 -21 -4 -12 -15 7 -8 11 -20 10 -28 -2 -7 2 -29 9 -48 6 -19 14 -48 16
-65 3 -16 10 -31 16 -33 5 -2 10 -8 10 -13 0 -6 -5 -7 -11 -3 -6 3 -3 -5 6
-20 17 -26 39 -34 49 -17 13 21 5 94 -13 130 -5 9 -7 24 -6 34 2 9 0 17 -5 17
-4 0 -6 10 -2 22 3 15 2 19 -7 14 -9 -6 -10 0 -6 21 5 22 4 25 -5 13 -9 -12
-10 -8 -5 19 5 23 4 31 -4 27 -11 -7 -16 11 -12 52 1 17 -2 22 -10 16 -9 -5
-10 -2 -6 9 3 10 2 17 -4 17 -5 0 -7 11 -3 26 5 19 4 25 -5 20 -6 -4 -11 -3
-11 3 0 5 -3 17 -7 27 -5 13 -3 15 8 9 11 -6 11 -5 2 5 -6 7 -9 19 -6 26 3 8
1 14 -5 14 -6 0 -8 10 -4 22 3 12 1 19 -4 15 -5 -3 -10 2 -11 11 -2 58 -8 92
-15 92 -4 0 -8 14 -8 30 0 32 14 40 24 14 4 -10 12 -14 23 -10 10 4 14 4 11 0
-10 -9 11 -46 22 -39 5 3 12 0 16 -6 5 -8 3 -9 -6 -4 -8 5 -11 3 -8 -6 3 -8
11 -13 17 -11 7 1 10 -1 7 -6 -6 -10 87 -102 103 -102 6 0 11 -4 11 -9 0 -5 9
-7 21 -4 16 4 19 11 14 27 -4 11 -7 29 -8 38 -1 9 -4 15 -8 13 -3 -3 -15 5
-25 17 -11 12 -13 18 -6 14 6 -4 12 -5 12 -2 0 3 -12 12 -27 20 -16 8 -41 32
-58 55 -19 26 -35 39 -45 35 -8 -3 -11 -2 -7 2 4 4 1 14 -6 22 -10 13 -9 14 3
7 13 -8 13 -7 1 8 -15 19 -36 23 -25 5 5 -7 3 -8 -5 -4 -7 5 -10 15 -7 23 3 8
2 12 -3 9 -5 -3 -14 1 -21 9 -7 8 -16 12 -21 10 -4 -3 -13 4 -19 15 -9 16 -15
19 -25 10 -9 -8 -15 -8 -20 0 -8 12 -22 13 -29 2z m145 -99 c13 -16 12 -17 -3
-4 -10 7 -18 15 -18 17 0 8 8 3 21 -13z m37 -48 c12 -14 18 -25 13 -25 -5 0
-16 11 -25 25 -9 14 -15 25 -13 25 2 0 13 -11 25 -25z m-125 -20 c-3 -9 -8
-14 -10 -11 -3 3 -2 9 2 15 9 16 15 13 8 -4z"/>
<path d="M2439 4794 c-6 -8 -8 -14 -5 -14 4 0 -17 -23 -46 -51 -29 -28 -44
-45 -33 -38 18 13 19 13 6 -3 -7 -10 -17 -16 -21 -13 -12 8 -53 -43 -45 -56 5
-8 4 -10 -4 -5 -14 9 -74 -51 -65 -65 3 -5 1 -8 -5 -7 -11 3 -91 -79 -91 -94
0 -6 6 -8 14 -5 8 3 20 -1 26 -9 7 -8 18 -14 24 -14 19 0 79 67 72 79 -4 6 -1
11 6 11 19 0 80 64 71 74 -5 4 -1 6 7 4 9 -2 14 3 12 12 -2 8 0 12 4 7 4 -4
23 7 41 25 34 33 41 32 23 -3 -8 -14 -7 -19 2 -19 8 0 7 -4 -3 -10 -14 -8 -27
-45 -34 -95 -1 -5 -5 -17 -8 -25 -4 -8 -8 -28 -11 -45 -2 -16 -5 -31 -6 -32
-2 -2 -3 -6 -5 -10 -1 -5 -4 -15 -7 -23 -13 -32 -19 -68 -25 -145 -3 -44 -7
-81 -8 -83 -1 -1 -27 13 -56 33 -141 93 -263 130 -429 129 -104 0 -123 -3
-199 -32 -123 -46 -164 -74 -285 -191 -121 -119 -175 -189 -234 -306 -77 -155
-115 -320 -115 -495 1 -183 24 -309 76 -421 56 -121 168 -286 247 -367 167
-170 323 -248 515 -259 131 -7 234 20 442 115 172 79 213 105 213 133 0 11 4
18 9 15 4 -3 14 13 20 36 11 36 11 43 -3 54 -13 9 -14 13 -4 17 8 2 15 20 16
38 2 25 0 30 -8 19 -5 -8 -10 -10 -10 -5 0 6 -5 3 -11 -5 -9 -12 -10 -12 -5 3
3 10 6 26 6 35 0 15 2 15 10 2 6 -9 10 -10 10 -3 0 6 -7 18 -15 26 -8 8 -11
17 -8 21 4 3 1 6 -5 6 -7 0 -12 7 -12 15 0 8 -4 15 -10 15 -28 0 -63 17 -56
28 2 4 -21 6 -52 6 -40 -1 -88 -13 -162 -42 -58 -22 -136 -52 -173 -66 -96
-37 -171 -43 -253 -21 -48 13 -68 23 -74 39 -10 28 -1 49 18 41 12 -4 13 -3 2
10 -17 21 -39 2 -35 -30 3 -30 -10 -33 -25 -5 -9 17 -8 19 7 13 16 -6 16 -4
-1 15 -11 12 -14 22 -8 22 7 0 12 -5 12 -11 0 -8 5 -8 15 1 23 19 18 31 -10
26 -13 -3 -28 0 -31 6 -4 7 -2 8 4 4 7 -4 12 -2 12 4 0 6 5 8 10 5 6 -3 10 1
10 10 0 11 -5 15 -15 11 -8 -3 -15 -1 -15 4 0 5 -8 6 -17 3 -16 -6 -17 -5 -3
12 12 15 12 17 1 10 -9 -5 -19 -2 -28 10 -12 18 -13 18 -13 -4 0 -12 4 -20 9
-16 5 3 12 -4 16 -15 4 -11 11 -18 16 -15 5 3 6 -1 3 -10 -6 -14 -8 -13 -21 5
-18 26 -37 27 -23 1 12 -23 14 -48 3 -37 -5 4 -8 12 -8 18 0 6 -8 12 -19 14
-26 4 -59 37 -116 120 -82 119 -98 163 -106 289 -7 131 8 210 63 325 29 61 55
94 137 176 125 126 174 149 306 148 68 0 98 -6 147 -27 91 -37 118 -60 174
-145 82 -123 131 -159 200 -147 32 6 37 10 34 28 -4 20 -3 20 9 5 12 -16 15
-15 45 15 17 19 28 36 25 40 -4 4 -2 7 4 7 17 0 30 60 28 135 -1 69 -3 74 -64
169 -72 111 -88 146 -69 146 8 0 7 4 -3 10 -8 5 -10 10 -4 10 14 0 14 30 0 30
-6 0 -5 4 3 9 8 5 12 19 9 35 -3 14 -2 26 2 26 11 0 7 44 -5 52 -6 5 -4 8 5 8
13 0 13 1 0 10 -13 9 -13 10 0 10 17 0 45 84 35 101 -4 5 -2 9 2 9 7 0 50 137
56 180 2 8 6 21 10 28 5 6 6 16 3 21 -4 5 -2 11 3 13 5 1 11 21 14 43 3 22 9
49 13 59 6 15 4 17 -7 11 -11 -6 -12 -5 -1 6 19 21 14 32 -13 27 -14 -3 -25
-2 -25 1 0 13 -39 9 -51 -5z m65 -29 c-4 -8 -8 -15 -10 -15 -2 0 -4 7 -4 15 0
8 4 15 10 15 5 0 7 -7 4 -15z m-55 -40 c-31 -32 -45 -32 -17 0 12 14 26 25 31
25 5 0 -1 -11 -14 -25z m11 -20 c0 -8 -4 -15 -10 -15 -5 0 -7 7 -4 15 4 8 8
15 10 15 2 0 4 -7 4 -15z m11 -68 c-10 -9 -11 -8 -5 6 3 10 9 15 12 12 3 -3 0
-11 -7 -18z m-4 -37 c-1 -11 -5 -20 -9 -20 -10 0 -10 4 -2 24 8 22 13 20 11
-4z m-10 -45 c0 -8 -4 -12 -9 -9 -5 3 -6 10 -3 15 9 13 12 11 12 -6z m-152 -5
c3 -6 -1 -7 -9 -4 -18 7 -21 14 -7 14 6 0 13 -4 16 -10z m-55 -50 c0 -5 -5
-10 -11 -10 -5 0 -7 5 -4 10 3 6 8 10 11 10 2 0 4 -4 4 -10z m-43 -35 c0 -8
-4 -12 -9 -9 -5 3 -6 10 -3 15 9 13 12 11 12 -6z m168 -395 c3 -6 -1 -7 -9 -4
-18 7 -21 14 -7 14 6 0 13 -4 16 -10z m-728 -1312 c-3 -8 -6 -5 -6 6 -1 11 2
17 5 13 3 -3 4 -12 1 -19z m840 -290 c-3 -8 -6 -5 -6 6 -1 11 2 17 5 13 3 -3
4 -12 1 -19z"/>
<path d="M6123 4798 c-13 -6 -23 -18 -22 -27 0 -10 2 -12 6 -3 2 6 9 10 14 7
13 -9 -14 -33 -30 -27 -11 4 -12 -1 -7 -22 4 -18 3 -25 -3 -21 -7 4 -9 -16 -8
-57 3 -50 14 -88 54 -178 62 -141 83 -229 90 -380 7 -140 -11 -480 -37 -730
-11 -102 -24 -297 -30 -435 -5 -137 -12 -293 -15 -345 -2 -52 -5 -221 -5 -376
l0 -281 -282 -1 c-181 -1 -323 -7 -397 -17 -301 -38 -764 -60 -1111 -52 -453
11 -660 19 -660 28 0 4 -3 16 -6 26 -5 15 -4 15 5 3 6 -8 11 -10 11 -4 0 5 -5
15 -10 20 -7 7 -6 21 2 44 8 25 8 35 0 38 -6 2 -9 9 -6 16 3 8 -3 22 -13 32
-10 10 -18 25 -18 33 -1 9 -6 15 -13 14 -7 -2 -11 1 -9 6 1 5 -50 71 -114 147
-238 286 -288 393 -311 664 -14 172 -5 267 37 389 35 103 72 163 178 287 114
134 147 160 262 211 130 57 136 59 295 102 184 50 229 57 424 72 237 19 345 0
526 -91 229 -115 352 -269 375 -472 4 -29 8 -68 11 -86 6 -47 -14 -266 -32
-342 -28 -121 -100 -221 -208 -289 -42 -26 -60 -31 -110 -31 -34 1 -70 6 -82
13 -63 36 -79 62 -140 222 -57 146 -84 222 -84 231 0 2 11 4 25 4 13 0 28 8
34 17 5 10 13 15 17 11 10 -10 64 30 64 48 0 9 7 22 16 31 8 9 13 22 10 29 -3
8 -2 14 2 14 5 0 9 30 9 66 0 45 -3 62 -9 53 -7 -10 -8 -6 -5 14 2 16 -1 34
-9 41 -7 8 -10 16 -7 20 4 3 1 6 -6 6 -7 0 -10 4 -7 8 3 5 -4 16 -15 25 -10 9
-19 14 -19 10 0 -4 -6 0 -12 9 -18 22 -211 104 -288 123 -106 26 -309 31 -410
11 -94 -19 -135 -36 -260 -110 -98 -57 -149 -102 -231 -204 -67 -83 -89 -126
-121 -238 -19 -67 -23 -102 -23 -234 0 -136 3 -164 23 -225 30 -88 51 -123
125 -207 86 -98 140 -135 238 -159 146 -37 223 -21 376 79 149 97 173 120 248
242 l28 44 27 -69 c41 -108 58 -134 124 -198 74 -72 144 -118 215 -142 77 -25
256 -17 326 15 86 39 182 110 257 189 57 59 84 99 125 181 28 58 60 132 71
165 48 144 74 456 53 645 -15 135 -61 300 -110 388 -42 77 -133 202 -183 252
-91 90 -380 253 -508 285 -92 24 -94 24 -208 37 -87 10 -134 9 -300 -6 -166
-15 -227 -25 -387 -66 -284 -72 -481 -157 -602 -259 -118 -99 -312 -346 -368
-468 -82 -177 -118 -350 -118 -568 0 -439 107 -727 394 -1061 l90 -104 -163 5
c-363 13 -465 25 -1128 137 -248 41 -326 47 -600 44 -146 -2 -305 1 -355 6
-49 5 -102 6 -118 2 -33 -7 -89 -52 -81 -65 3 -5 2 -9 -3 -8 -20 3 -27 -2 -13
-11 10 -6 11 -10 3 -10 -7 0 -13 -7 -13 -16 0 -9 -5 -12 -12 -8 -8 5 -9 -2 -5
-25 4 -20 3 -30 -3 -26 -6 4 -10 -14 -10 -44 0 -27 5 -53 10 -56 6 -4 8 -10 5
-15 -7 -12 26 -80 37 -74 4 3 8 0 8 -6 0 -60 149 -82 488 -73 246 7 413 -6
652 -47 96 -17 222 -37 280 -45 119 -16 277 -44 300 -52 37 -13 97 -16 640
-31 234 -7 522 -16 640 -22 425 -20 648 -22 900 -11 294 13 607 36 698 51 90
15 608 18 622 4 6 -6 15 -76 20 -155 22 -344 69 -748 110 -934 33 -154 65
-222 123 -269 34 -27 46 -31 100 -31 56 1 73 6 169 57 196 103 373 234 545
407 85 85 170 173 188 196 36 44 195 300 195 315 0 4 4 10 8 12 17 6 84 133
108 204 58 175 17 323 -114 410 -117 78 -218 100 -552 119 -273 16 -268 16
-437 42 l-113 17 0 121 c0 66 5 316 10 555 10 419 19 564 56 900 13 114 18
243 18 485 1 307 -1 338 -22 445 -22 106 -59 206 -142 383 l-22 47 -112 -1
c-61 0 -121 -5 -133 -11z m-1868 -1570 c-60 -304 -117 -400 -287 -493 -68 -37
-115 -29 -174 32 -52 53 -60 87 -44 183 10 62 18 79 60 128 53 64 178 145 257
167 26 7 81 14 121 14 l74 1 -7 -32z m525 -19 c0 -5 -4 -9 -8 -9 -5 0 -9 7 -9
15 0 8 4 12 9 9 4 -3 8 -9 8 -15z m1828 -1788 c195 -26 245 -30 397 -36 88 -3
194 -11 236 -16 l77 -11 -91 -148 c-85 -142 -98 -157 -256 -312 -126 -124
-194 -182 -281 -241 -63 -42 -118 -73 -122 -69 -9 9 -36 208 -48 352 -5 63
-16 178 -25 255 -8 77 -15 164 -15 194 0 50 1 53 23 48 12 -3 59 -10 105 -16z"/>
<path d="M2154 4418 c1 -12 9 -22 18 -24 27 -4 28 9 3 28 -21 16 -22 16 -21
-4z"/>
</g>
</svg>
