<?xml version="1.0" standalone="no"?>
<!DOCTYPE svg PUBLIC "-//W3C//DTD SVG 20010904//EN"
 "http://www.w3.org/TR/2001/REC-SVG-20010904/DTD/svg10.dtd">
<svg version="1.0" xmlns="http://www.w3.org/2000/svg"
 width="909.000000pt" height="511.000000pt" viewBox="0 0 909.000000 511.000000"
 preserveAspectRatio="xMidYMid meet">

<g transform="translate(0.000000,511.000000) scale(0.100000,-0.100000)"
fill="#000000" stroke="none">
<path d="M406 5088 c-4 -22 -10 -83 -36 -428 -31 -402 -42 -559 -50 -695 -19
-305 -40 -583 -50 -670 -7 -49 -15 -128 -19 -174 -5 -49 -14 -86 -21 -91 -14
-8 -50 -112 -50 -142 0 -10 5 -18 10 -18 6 0 10 -8 10 -17 -1 -17 -1 -17 -14
0 -19 25 -40 21 -74 -13 -20 -20 -25 -30 -16 -30 19 0 49 -29 40 -38 -4 -3
-11 0 -16 7 -4 8 -15 11 -24 8 -9 -4 -16 -2 -16 3 0 6 -8 10 -17 11 -12 0 -13
2 -5 6 10 4 10 8 2 18 -6 8 -18 11 -26 8 -8 -3 -14 0 -14 6 0 6 -4 11 -10 11
-15 0 -12 -66 4 -105 13 -29 13 -35 0 -46 -12 -10 -14 -100 -14 -575 l0 -564
63 1 c34 0 85 5 112 10 28 6 91 12 140 14 145 7 207 14 222 26 10 9 18 7 34
-7 15 -14 24 -16 37 -7 10 6 26 7 40 2 14 -5 26 -4 33 4 7 8 33 11 70 9 46 -3
70 2 119 24 41 18 64 24 68 17 9 -14 247 -7 247 7 0 2 141 10 190 11 10 0 24
3 30 8 14 10 262 14 268 3 8 -11 130 -7 152 5 10 6 26 8 36 6 13 -4 19 0 19
11 0 9 7 19 15 22 20 8 45 -13 45 -37 0 -28 36 -38 137 -36 67 1 97 -3 114
-15 13 -8 58 -23 99 -33 41 -10 83 -21 92 -26 28 -14 46 -11 58 11 6 11 15 20
21 20 6 0 7 -4 4 -10 -3 -5 1 -10 9 -10 9 0 16 9 16 20 0 11 -5 20 -12 20 -6
0 -8 3 -5 7 4 3 2 12 -3 18 -7 9 -7 21 0 39 7 18 6 26 -1 26 -7 0 -9 11 -7 25
3 14 1 28 -4 31 -4 3 -6 9 -3 14 2 4 -9 13 -25 20 -17 7 -30 17 -30 22 0 5 9
4 21 -3 27 -14 43 1 45 42 1 26 -1 30 -17 26 -10 -3 -22 -1 -25 4 -3 5 -18 9
-33 9 -30 0 -81 20 -81 33 0 13 31 8 46 -8 11 -10 33 -14 72 -13 50 1 52 2 15
5 -24 2 -43 7 -43 10 0 9 50 53 61 53 5 0 9 5 9 10 0 6 -13 10 -30 10 -16 0
-30 4 -30 8 0 5 14 6 31 4 22 -3 30 -1 25 7 -4 6 -14 11 -21 11 -23 0 -51 48
-36 63 9 9 16 9 30 0 15 -9 23 -9 36 1 17 12 15 14 -13 24 -37 13 -45 39 -9
27 12 -4 35 -9 51 -12 26 -5 27 -4 16 16 -6 12 -22 26 -34 31 -13 5 -26 16
-30 25 -5 13 -2 15 17 9 12 -4 24 -11 25 -15 2 -5 11 -9 19 -9 10 0 13 6 9 16
-4 12 -1 14 14 9 11 -4 20 -2 20 4 0 6 -18 11 -40 11 -54 0 -51 20 3 22 36 1
38 2 9 5 -29 4 -30 6 -17 19 9 10 24 13 37 9 19 -5 18 -3 -4 10 -37 21 -35 26
4 14 39 -11 47 -5 19 13 -31 19 -26 23 26 23 33 0 47 4 46 13 -2 6 2 12 7 12
18 0 10 16 -8 17 -11 1 -44 9 -75 18 -68 20 -78 41 -14 30 23 -5 53 -9 67 -9
14 -1 30 -5 37 -9 6 -4 13 -3 15 2 1 5 23 12 48 16 25 4 49 11 54 16 6 5 19 9
29 9 11 0 25 7 31 16 9 11 17 13 36 5 22 -8 22 -10 5 -11 -17 0 -17 -2 -5 -10
11 -7 8 -10 -16 -10 -26 0 -31 -4 -29 -23 0 -12 -10 -35 -24 -52 l-26 -30 25
20 c15 13 36 19 53 17 31 -4 35 -19 10 -37 -14 -11 -15 -15 -4 -29 11 -13 9
-16 -13 -22 -14 -3 -23 -10 -20 -16 3 -5 13 -7 23 -4 14 5 13 4 -1 -8 -10 -7
-18 -18 -18 -25 0 -6 -8 -11 -17 -12 -10 0 -13 -3 -6 -5 6 -3 28 2 48 10 28
12 35 13 26 3 -6 -8 -7 -17 -3 -22 4 -4 -3 -5 -15 -2 -13 3 -26 1 -29 -5 -3
-5 3 -12 15 -15 12 -3 21 -9 21 -13 0 -15 -34 -17 -60 -4 -21 10 -30 10 -50
-2 -14 -7 -19 -13 -12 -14 6 0 12 -7 12 -15 0 -8 6 -15 14 -15 8 0 22 -3 32
-7 12 -4 15 -3 10 5 -5 8 2 12 21 11 17 -1 21 -3 11 -6 -10 -2 -18 -9 -18 -14
0 -6 5 -7 10 -4 6 3 10 2 10 -4 0 -5 -33 -13 -72 -18 -40 -4 -63 -9 -50 -11
25 -4 30 -22 6 -22 -14 0 -14 -2 0 -15 16 -16 41 -21 32 -6 -6 9 10 25 35 33
9 4 16 1 16 -8 0 -8 -6 -14 -14 -14 -7 0 -13 -7 -13 -15 0 -9 -13 -18 -32 -22
-31 -6 -31 -6 -7 -16 14 -5 19 -11 11 -14 -43 -16 27 -23 91 -9 9 2 15 0 11
-5 -3 -5 -12 -9 -20 -9 -8 0 -12 -4 -9 -10 3 -5 -2 -10 -12 -10 -15 0 -15 -2
-4 -9 11 -7 6 -12 -20 -19 l-34 -10 37 -1 c26 -1 40 -7 48 -21 7 -13 7 -20 1
-20 -6 0 -22 -11 -37 -25 -19 -18 -22 -25 -11 -25 8 0 17 -5 19 -12 3 -7 10
-8 17 -4 11 7 11 10 0 17 -11 7 -10 9 4 9 28 0 15 -23 -24 -42 l-34 -17 32 5
c17 4 39 1 50 -5 17 -10 17 -10 -2 -11 l-20 -1 20 -9 20 -9 -20 0 c-15 -1 -16
-4 -7 -10 7 -4 25 -6 40 -3 24 5 26 3 13 -11 -7 -9 -17 -14 -22 -11 -5 3 -17
0 -26 -6 -17 -11 -17 -11 0 -6 31 10 18 -5 -15 -16 -33 -12 -33 -12 -8 -18 14
-4 31 -2 38 3 9 7 11 6 6 -6 -3 -8 0 -17 8 -20 7 -2 4 -3 -7 -1 -11 2 -27 -2
-35 -7 -12 -9 -12 -10 3 -5 27 9 32 -20 7 -46 -18 -19 -19 -24 -6 -26 9 -2 13
-8 9 -14 -4 -7 0 -9 9 -5 21 8 30 -3 17 -20 -9 -10 -8 -13 5 -13 9 0 16 -4 16
-10 0 -5 -4 -10 -10 -10 -5 0 -10 -4 -10 -10 0 -5 15 -10 33 -11 l32 -1 -28
-10 c-25 -9 -38 -28 -18 -28 5 0 7 -9 4 -20 -4 -16 -2 -19 11 -14 21 8 18 -15
-4 -34 -13 -11 -11 -12 10 -7 22 5 23 4 7 -5 -10 -7 -24 -9 -31 -7 -7 3 -25
-5 -40 -16 -25 -20 -26 -24 -12 -42 15 -20 15 -20 37 2 l22 22 -21 -6 c-33 -8
-26 4 8 16 23 7 29 7 24 -1 -5 -8 -1 -9 11 -5 9 4 24 2 31 -4 8 -6 24 -9 36
-6 l23 6 -24 -20 c-13 -10 -19 -19 -13 -19 6 0 8 -9 5 -20 -4 -16 1 -21 26
-26 27 -6 30 -10 24 -32 -5 -21 -3 -24 14 -20 21 6 25 -15 8 -41 -5 -9 -4 -12
2 -8 6 4 16 0 23 -8 10 -12 10 -15 -1 -15 -10 -1 -8 -4 4 -11 9 -5 22 -7 27
-4 6 3 10 2 10 -4 0 -5 -4 -12 -10 -16 -15 -9 0 -34 17 -28 11 4 14 2 9 -5 -4
-7 -1 -12 8 -12 10 0 13 -6 9 -17 -5 -12 -3 -14 7 -8 8 5 11 3 8 -5 -2 -7 -15
-17 -27 -22 -20 -7 -22 -6 -12 5 9 12 3 17 -34 27 -24 7 -58 25 -75 41 -16 16
-35 29 -41 29 -6 0 -9 7 -5 15 3 8 0 15 -5 15 -6 0 -9 9 -6 20 3 13 0 20 -9
20 -13 0 -18 12 -15 33 0 4 -6 7 -14 7 -8 0 -14 5 -12 11 4 19 -99 30 -114 13
-5 -7 -28 -11 -52 -9 -23 1 -45 0 -50 -2 -9 -5 12 -27 37 -36 31 -12 9 -21
-45 -18 -43 2 -51 0 -56 -17 -4 -17 -11 -20 -41 -15 -21 3 -46 10 -57 16 -14
7 -21 6 -29 -5 -8 -13 -16 -14 -60 -2 -61 16 -96 18 -96 4 0 -5 5 -10 10 -10
6 0 10 -4 10 -10 0 -11 -38 -5 -118 17 -64 18 -88 12 -72 -17 6 -11 16 -20 23
-20 20 0 78 -66 72 -82 -8 -20 39 -40 73 -32 26 6 26 6 -8 -25 -36 -31 -19
-33 28 -3 18 11 22 23 20 46 -2 28 0 31 22 28 14 -2 41 2 60 8 28 9 41 9 63
-3 27 -14 28 -15 8 -22 -12 -3 -21 -11 -21 -16 0 -6 -14 -22 -31 -36 -28 -24
-30 -28 -14 -39 9 -7 27 -11 41 -9 18 2 26 -3 30 -21 4 -17 13 -24 29 -24 13
0 35 -4 49 -10 17 -6 27 -6 32 1 4 8 9 7 15 -2 6 -10 9 -7 9 11 0 18 3 21 11
13 6 -6 18 -9 25 -6 8 3 22 2 32 -2 9 -4 35 -9 56 -11 22 -2 45 -9 51 -14 9
-8 14 -4 18 11 6 21 10 21 74 15 37 -4 83 -12 101 -19 29 -10 36 -9 47 6 11
16 13 16 19 1 4 -12 15 -15 37 -12 17 3 50 -2 73 -10 64 -23 106 -31 111 -22
6 10 65 -8 65 -20 0 -5 -8 -10 -17 -12 -16 -3 -16 -6 4 -23 12 -10 20 -22 17
-26 -6 -10 -80 -2 -104 11 -21 11 -60 13 -85 4 -14 -6 -13 -8 5 -21 11 -8 33
-14 48 -13 41 3 52 1 52 -9 0 -5 -7 -11 -16 -13 -14 -3 -13 -7 5 -30 13 -16
17 -29 11 -33 -21 -13 3 -27 36 -22 21 4 34 2 34 -5 0 -7 5 -6 14 2 8 6 12 18
10 25 -6 15 12 55 24 54 4 -1 15 -1 25 0 14 1 16 5 7 20 -15 29 -13 32 18 25
l27 -7 -24 26 -24 26 24 20 c24 20 42 18 72 -7 21 -18 24 -57 3 -49 -25 10
-27 -6 -4 -30 12 -13 31 -23 42 -23 12 0 30 -8 41 -16 19 -16 19 -16 -10 -11
-27 5 -28 4 -11 -9 10 -7 24 -23 30 -36 17 -34 46 -36 46 -4 0 14 6 27 13 28
6 0 17 2 22 2 6 1 16 5 23 10 19 12 64 -2 80 -25 11 -16 17 -17 28 -8 8 6 14
18 14 25 0 26 31 14 41 -16 6 -16 15 -30 20 -30 5 0 14 -12 20 -27 8 -20 12
-24 18 -14 7 11 11 9 20 -8 8 -14 21 -21 40 -21 16 0 47 -7 69 -14 26 -9 44
-11 47 -5 4 5 12 6 18 2 23 -14 112 -26 187 -25 117 2 130 3 134 11 7 11 113
3 137 -9 19 -10 19 -11 -3 -43 -36 -50 -44 -56 -58 -47 -8 5 -22 4 -32 -1 -14
-7 -15 -14 -8 -34 6 -16 6 -25 0 -25 -6 0 -10 -5 -10 -11 0 -5 4 -8 9 -4 5 3
12 1 15 -4 4 -6 18 -6 37 -1 19 6 41 5 57 -1 18 -7 28 -7 30 0 2 6 14 11 27
11 13 0 27 5 30 10 4 6 11 8 16 4 11 -6 39 13 39 27 0 4 -16 6 -37 4 -44 -4
-65 3 -56 19 9 13 4 57 -7 71 -12 15 37 12 52 -3 7 -7 27 -12 44 -12 29 0 33
3 36 32 2 25 9 33 31 39 16 4 27 3 27 -2 0 -6 4 -8 9 -5 5 3 14 -1 21 -9 7 -9
29 -15 51 -15 21 0 40 -4 44 -9 3 -5 18 -12 34 -16 21 -4 32 -16 44 -46 15
-37 39 -51 52 -29 4 6 0 22 -9 35 -10 15 -12 26 -6 30 6 3 10 2 10 -4 0 -7 8
-7 25 -1 26 10 55 4 55 -11 0 -5 -6 -9 -12 -9 -9 -1 -8 -4 2 -9 8 -5 36 -8 62
-7 25 1 44 -2 41 -7 -7 -12 71 4 78 16 4 5 11 7 16 4 6 -4 26 2 46 12 26 13
46 17 69 12 18 -4 43 -3 56 3 18 7 26 6 32 -4 8 -14 59 -16 100 -5 8 2 26 -5
38 -15 l24 -20 -22 -30 c-24 -34 -20 -50 13 -50 17 0 23 6 25 25 1 14 -2 25
-7 25 -15 0 0 46 19 58 14 8 26 7 56 -9 21 -10 42 -26 47 -34 4 -8 16 -16 25
-16 9 -1 4 -5 -13 -9 -23 -6 -25 -8 -8 -9 25 -1 42 -21 19 -21 -9 0 -16 -5
-16 -11 0 -7 10 -5 25 5 14 9 25 13 25 8 0 -4 10 -8 21 -9 12 -1 23 -4 26 -7
10 -9 -9 -26 -29 -26 -11 0 -33 -7 -48 -17 -26 -15 -29 -15 -45 0 -15 15 -18
16 -32 1 -9 -8 -22 -13 -29 -10 -8 3 -15 1 -15 -4 -1 -6 -3 -14 -4 -20 -1 -5
-3 -14 -4 -19 0 -5 -10 -11 -21 -14 -11 -3 -18 -1 -15 4 6 8 -95 42 -111 37
-21 -6 -74 13 -74 26 0 19 -66 15 -86 -5 -12 -13 -12 -18 2 -37 19 -28 41 -28
65 1 12 14 21 18 26 11 5 -6 33 -15 63 -20 34 -6 54 -14 52 -22 -1 -7 7 -12
19 -12 15 0 19 -4 15 -16 -5 -12 -2 -15 11 -9 10 4 33 8 51 9 29 1 32 -1 32
-26 0 -24 -10 -35 -23 -25 -2 1 -12 -4 -21 -12 -9 -8 -13 -17 -7 -20 20 -13
16 -45 -9 -58 -23 -13 -20 -13 35 -10 45 2 59 6 57 17 -3 11 0 11 12 1 11 -9
16 -9 21 0 6 8 10 8 15 -1 9 -15 280 -27 280 -13 -1 13 -24 39 -42 46 -9 3
-29 2 -45 -2 -43 -12 -223 20 -223 40 0 6 -4 8 -9 5 -12 -8 -21 18 -11 34 4 7
13 9 20 5 9 -5 11 -4 6 3 -5 8 2 12 18 12 20 0 26 5 26 23 0 13 -5 28 -11 34
-16 16 34 47 80 48 20 0 53 7 74 14 37 13 109 8 105 -7 -1 -4 3 -16 9 -28 11
-19 8 -23 -26 -42 -30 -17 -49 -21 -82 -16 -24 3 -55 1 -69 -5 l-25 -10 29 0
c25 -1 27 -4 22 -26 -5 -18 -2 -25 9 -25 8 0 15 4 15 9 0 4 10 7 23 6 12 -1
44 -3 70 -4 27 0 46 -5 43 -9 -2 -4 -1 -14 5 -22 6 -10 9 -11 9 -2 0 6 7 12
16 12 10 0 14 -6 10 -15 -3 -8 0 -15 6 -15 7 0 7 -4 -1 -14 -8 -9 -8 -16 -2
-20 5 -4 12 -2 16 4 11 18 31 11 43 -15 8 -17 20 -25 36 -25 25 0 43 25 26 35
-21 13 -5 88 23 106 14 10 41 0 71 -26 28 -24 47 -24 78 2 9 8 22 13 30 12 7
-1 23 -1 36 0 22 1 22 2 6 26 -10 15 -12 25 -5 25 6 0 11 -4 11 -10 0 -5 7 -6
17 -3 9 4 14 2 10 -4 -3 -5 4 -9 16 -9 14 1 21 -4 19 -13 -2 -9 4 -12 18 -8
11 3 22 1 25 -3 6 -9 51 -7 61 2 8 9 -34 20 -46 13 -6 -4 -10 -3 -9 2 3 20 -2
27 -11 13 -8 -12 -10 -9 -10 12 0 21 6 28 30 33 19 4 30 13 30 24 0 9 5 22 12
29 9 9 9 12 1 12 -7 0 -24 11 -39 25 -16 14 -36 25 -46 23 -29 -5 -25 -22 7
-28 49 -9 39 -27 -19 -34 -58 -6 -113 11 -166 53 -19 15 -42 20 -95 21 -98 2
-107 1 -100 -9 9 -16 -12 -22 -40 -11 -19 7 -25 15 -21 26 4 10 -1 22 -11 30
-17 12 -16 13 5 14 12 0 22 -4 22 -9 0 -5 21 -9 47 -9 26 -1 60 -4 75 -7 20
-5 30 -2 34 8 4 11 21 14 77 12 78 -4 145 -12 159 -21 4 -3 27 -7 51 -10 23
-2 47 -11 54 -20 6 -9 16 -13 22 -9 13 8 14 42 2 47 -14 5 -18 40 -5 45 13 4
37 -44 29 -58 -4 -5 -1 -9 4 -9 6 0 11 5 11 10 0 15 26 12 40 -5 19 -23 28
-18 22 11 -5 26 -4 26 20 10 14 -9 33 -14 42 -10 29 11 63 -5 76 -37 15 -36
52 -54 80 -39 10 5 27 10 37 10 10 0 27 9 36 21 15 17 21 19 34 7 9 -7 30 -18
47 -23 25 -8 30 -16 28 -35 -1 -13 -5 -26 -8 -29 -8 -8 -89 -3 -118 9 -24 9
-27 8 -24 -7 2 -12 18 -22 45 -28 22 -6 50 -18 60 -28 11 -9 22 -15 25 -12 3
3 17 1 32 -5 42 -15 49 -3 20 35 -20 27 -23 38 -15 54 12 22 66 37 84 23 7 -5
30 -15 52 -22 22 -7 46 -17 53 -23 8 -6 17 -5 27 3 11 9 22 8 52 -7 34 -16 59
-59 28 -47 -7 3 -16 1 -19 -5 -6 -9 29 -17 109 -23 18 -2 29 -8 27 -15 -1 -7
3 -13 9 -13 5 0 8 -4 5 -8 -3 -5 13 -9 34 -9 25 0 48 -7 60 -18 20 -18 21 -18
14 1 -7 18 -6 18 12 3 20 -17 63 -35 77 -31 11 3 9 -16 -3 -23 -6 -4 -8 -10
-5 -15 3 -5 -3 -11 -12 -13 -10 -3 64 -5 165 -6 122 -1 182 2 182 10 0 5 -4 8
-9 5 -5 -3 -14 17 -21 44 -11 47 -30 69 -30 35 0 -9 -9 -15 -22 -15 -12 0 -29
-7 -39 -16 -19 -17 -44 -10 -33 8 4 6 2 8 -3 5 -13 -8 -63 40 -63 59 0 8 -4
14 -10 14 -5 0 -10 9 -10 20 0 22 28 27 61 10 21 -12 22 -9 19 48 -1 22 3 32
13 32 15 0 81 -67 89 -91 5 -16 136 -20 174 -6 16 6 23 3 26 -10 7 -26 88 -47
150 -40 31 4 71 1 106 -9 32 -8 75 -17 97 -20 22 -3 44 -9 49 -14 5 -5 21 -6
36 -3 15 3 38 0 50 -7 12 -7 65 -17 116 -24 l94 -12 0 1538 c0 1460 -1 1537
-17 1531 -16 -6 -16 -5 -3 11 8 10 15 27 17 37 3 17 0 17 -17 7 -32 -20 -35 0
-5 32 32 33 28 37 -15 15 -26 -13 -130 -19 -130 -7 0 10 35 31 53 32 33 0 17
19 -20 22 -45 4 -55 28 -18 45 20 9 27 8 33 -2 5 -9 12 -11 22 -5 11 7 8 11
-14 20 -31 11 -62 5 -84 -16 -16 -16 -32 -18 -32 -4 0 5 13 16 28 24 16 8 34
22 41 30 11 13 8 16 -21 24 -18 5 -37 6 -43 1 -5 -4 -28 -10 -50 -14 -35 -5
-38 -4 -20 7 36 23 28 36 -18 27 -23 -4 -50 -11 -59 -14 -31 -12 -19 13 12 27
17 7 30 16 30 19 0 8 -38 5 -46 -4 -4 -4 -14 -7 -23 -7 -14 0 -14 2 -1 10 23
14 4 23 -22 9 -22 -12 -22 -11 -8 6 13 17 13 18 0 10 -44 -26 -91 -65 -79 -65
11 0 11 -2 -1 -10 -8 -5 -26 -10 -40 -10 -18 0 -21 3 -12 9 12 7 12 12 0 30
-11 20 -11 23 7 34 19 11 25 13 44 16 5 0 11 8 15 16 5 14 2 13 -24 0 -20 -10
-30 -12 -30 -4 0 7 -9 9 -22 6 -22 -6 -22 -6 -3 9 18 13 17 14 -14 8 -27 -6
-32 -4 -26 6 6 10 4 12 -8 7 -10 -4 -28 -2 -42 3 -17 6 -25 6 -25 -1 0 -15
-53 -6 -58 10 -3 8 0 11 5 8 5 -3 25 3 43 14 18 12 42 23 54 25 11 2 24 8 29
13 5 5 -23 2 -62 -6 -46 -9 -76 -11 -87 -5 -16 9 -15 10 3 16 12 4 24 13 27
21 4 13 -1 12 -32 -2 -20 -9 -49 -16 -64 -15 -28 1 -39 -13 -16 -20 7 -3 5 -7
-6 -11 -11 -5 -15 -3 -10 5 5 7 0 9 -14 6 -27 -7 -19 16 11 30 12 6 16 11 9
11 -7 1 -22 -4 -33 -10 -11 -6 -42 -12 -69 -14 -41 -3 -48 -1 -43 12 5 13 2
15 -16 10 -17 -4 -21 -2 -17 9 8 20 0 18 -42 -12 l-37 -25 30 6 c28 6 28 5 -8
-14 -21 -11 -55 -25 -75 -32 -42 -13 -64 -29 -41 -30 7 0 -2 -7 -21 -14 -24
-9 -29 -14 -15 -14 13 -1 16 -4 8 -9 -7 -5 -9 -13 -4 -21 6 -10 24 -12 64 -9
31 2 54 1 51 -4 -3 -4 -26 -8 -52 -8 -43 -1 -82 -17 -82 -35 0 -4 12 -4 28 -1
l27 6 -25 -15 -25 -14 28 -1 c31 0 34 -7 10 -26 -14 -11 -14 -13 -2 -9 8 3 26
2 39 -3 l25 -9 -23 -7 c-12 -4 -20 -12 -17 -17 4 -5 0 -9 -7 -9 -10 0 -9 -3 1
-9 12 -8 12 -12 2 -25 -11 -13 -11 -17 2 -22 9 -3 22 -2 29 2 10 6 10 4 -1 -9
-11 -15 -11 -17 1 -17 8 0 29 7 46 15 17 9 55 18 84 20 43 4 46 3 18 -4 -19
-4 -58 -16 -86 -26 -47 -17 -51 -21 -52 -52 -1 -25 3 -33 16 -33 10 0 13 -3 7
-8 -15 -10 -17 -32 -3 -32 21 0 0 -12 -37 -20 -51 -12 -100 4 -102 32 -1 13
-7 24 -12 26 -15 5 -1 32 17 32 9 0 1 8 -18 19 -40 21 -50 49 -24 68 16 12 14
13 -16 6 -31 -6 -34 -5 -22 9 11 14 10 17 -8 23 -17 5 -20 12 -16 31 4 13 2
24 -3 24 -5 0 -14 14 -20 31 -6 17 -20 33 -32 36 -14 4 -17 8 -9 13 16 10 1
38 -31 54 -13 7 -23 18 -22 24 2 6 -7 14 -19 18 -21 6 -21 6 3 21 23 13 23 14
2 8 -14 -4 -23 -2 -23 5 0 6 -10 8 -23 5 -17 -5 -24 -2 -24 8 0 9 7 13 16 10
14 -4 14 -4 1 6 -8 6 -23 11 -33 11 -9 0 -16 6 -15 13 2 7 -6 11 -22 10 -21
-2 -23 -1 -7 8 25 15 23 42 -3 34 -18 -6 -19 -4 -10 19 8 21 7 26 -6 26 -8 0
-13 4 -10 9 4 5 -5 8 -19 7 -13 -2 -22 1 -19 5 5 9 -8 12 -41 10 -17 -2 -17 0
-5 8 20 14 -1 14 -36 1 l-27 -11 32 30 c17 16 31 32 31 35 0 13 -90 -13 -113
-32 -9 -8 -20 -13 -23 -10 -3 3 6 14 20 25 21 17 31 40 27 66 0 4 -11 2 -23
-4 -20 -11 -46 -12 -128 -7 -8 0 -24 -2 -35 -6 -20 -8 -20 -7 -1 8 15 12 16
16 5 16 -8 0 -3 6 10 13 14 6 26 18 28 24 6 17 -35 -4 -65 -34 -12 -13 -30
-23 -39 -22 -12 0 -13 2 -5 6 9 4 10 8 2 18 -8 10 -6 15 11 20 20 7 21 8 5 17
-12 6 -22 6 -32 -3 -8 -6 -17 -9 -21 -5 -3 3 -1 6 5 6 7 0 12 5 12 10 0 6 -7
10 -16 10 -8 0 -13 4 -9 9 8 13 -56 -6 -69 -20 -8 -9 -8 -10 2 -5 6 4 12 2 12
-4 0 -7 7 -9 16 -6 8 3 12 2 9 -4 -3 -6 0 -10 7 -10 9 0 9 -3 -2 -10 -8 -5
-19 -10 -25 -10 -5 0 -4 4 3 9 11 7 11 9 -1 14 -9 3 -21 -1 -27 -9 -7 -8 -21
-14 -31 -14 -11 0 -19 -6 -19 -13 0 -7 -10 -18 -22 -26 -18 -10 -20 -11 -10 0
6 7 12 19 12 26 0 11 -4 11 -22 2 -21 -11 -22 -11 -9 4 7 10 22 17 33 17 11 0
16 5 13 10 -4 7 2 9 19 4 21 -5 26 -2 27 12 0 11 2 27 4 36 2 12 -2 15 -13 11
-10 -4 -13 -2 -8 5 4 7 1 12 -8 12 -10 0 -13 6 -9 17 5 12 2 15 -10 10 -9 -3
-17 -2 -17 3 0 6 -9 5 -20 -2 -29 -18 -25 -29 8 -22 26 6 26 6 7 -9 -11 -8
-23 -13 -27 -11 -4 3 -14 -9 -23 -26 -16 -31 -32 -42 -21 -15 6 18 -5 20 -22
3 -9 -9 -13 -8 -17 5 -4 9 -13 13 -21 10 -8 -3 -11 -10 -7 -16 3 -6 1 -7 -5
-3 -6 4 -19 -2 -29 -14 -10 -11 -22 -20 -27 -20 -5 0 0 10 12 23 12 13 20 26
17 29 -3 3 1 11 10 18 13 11 14 10 9 -4 -5 -12 -2 -15 10 -10 9 3 14 10 11 15
-3 4 4 13 15 19 12 6 20 7 20 1 0 -5 -8 -12 -17 -14 -17 -4 -17 -5 -1 -6 10 0
22 7 27 17 8 16 6 18 -20 18 -16 0 -29 -4 -29 -8 0 -5 -5 -6 -11 -2 -8 4 -4
13 12 25 13 10 19 19 13 19 -6 0 -17 -7 -24 -15 -22 -26 -31 -16 -14 16 15 30
15 31 -1 25 -9 -3 -19 -6 -21 -6 -3 0 -3 -4 0 -9 3 -5 -1 -12 -10 -15 -12 -5
-15 -2 -10 10 3 8 6 19 6 24 0 12 49 18 53 6 3 -8 8 -7 18 1 18 18 8 24 -44
26 -33 1 -52 -4 -68 -18 l-21 -20 7 35 7 35 -31 -29 c-17 -16 -34 -26 -38 -23
-3 4 -1 7 6 7 7 0 9 9 5 24 -3 13 -1 27 5 30 6 4 11 12 11 17 0 6 -4 8 -9 5
-5 -4 -12 0 -14 6 -3 8 -6 5 -6 -6 -1 -15 -4 -16 -15 -7 -13 11 -12 15 4 31
11 11 26 17 35 14 9 -4 15 -1 15 7 0 11 2 11 8 1 7 -10 16 -9 45 3 20 8 37 20
37 25 0 6 6 10 14 10 42 0 22 86 -26 115 -18 10 -27 20 -21 22 15 5 7 120 -10
137 -7 7 -20 12 -28 10 -12 -1 -15 4 -12 17 3 11 0 61 -6 112 -6 50 -13 126
-16 167 -2 41 -9 122 -14 180 -6 58 -10 117 -11 133 l0 27 -473 0 -473 0 -10
-32 c-5 -18 -14 -32 -21 -31 -6 1 -13 -6 -16 -17 -4 -14 -1 -17 12 -12 13 4
14 3 5 -9 -6 -8 -16 -27 -23 -44 l-11 -30 6 35 c4 22 3 31 -3 25 -14 -14 -37
-94 -30 -101 3 -3 -6 -17 -20 -30 -14 -13 -24 -27 -20 -30 3 -3 -1 -24 -9 -46
-8 -22 -14 -55 -14 -73 0 -43 -9 -67 -23 -58 -5 3 -7 1 -3 -5 3 -6 0 -16 -7
-24 -8 -7 -16 -31 -20 -52 -3 -22 -11 -44 -17 -50 -8 -8 -9 -5 -5 9 6 19 6 19
-5 2 -6 -10 -9 -25 -6 -33 3 -8 2 -13 -3 -10 -5 3 -11 -8 -15 -24 -7 -38 -28
-40 -26 -2 3 43 1 54 -11 46 -6 -3 -9 -15 -6 -25 3 -10 2 -18 -2 -17 -28 3
-39 -4 -34 -22 3 -11 1 -20 -5 -20 -5 0 -15 -14 -21 -31 -13 -39 -14 -42 -1
-34 15 9 11 -37 -6 -65 -14 -24 -14 -24 -9 15 3 22 2 33 -1 25 -14 -32 -27
-42 -35 -28 -7 10 -9 9 -9 -4 0 -9 4 -20 10 -23 6 -3 9 -16 9 -28 -1 -18 -2
-18 -6 -4 -3 10 -11 30 -19 45 -12 23 -14 24 -14 7 0 -17 -2 -17 -10 -5 -8 12
-10 12 -11 -5 0 -14 -5 -9 -14 15 -15 38 -18 28 -17 -45 1 -37 0 -37 -6 -10
-5 20 -10 26 -15 18 -13 -20 -29 -15 -22 6 3 11 1 22 -5 26 -5 3 -10 17 -10
31 0 15 -4 23 -10 19 -6 -4 -8 -16 -4 -27 4 -13 2 -18 -4 -14 -6 4 -7 -7 -1
-32 7 -31 5 -40 -12 -57 -17 -17 -19 -17 -13 -2 3 9 -3 37 -15 62 -12 25 -22
57 -22 72 -2 24 -2 25 -6 6 -5 -27 -18 -30 -27 -7 -13 34 -14 7 -2 -51 7 -33
17 -59 23 -58 6 1 9 -6 6 -18 -4 -15 -9 -17 -18 -9 -10 8 -15 7 -18 -7 -3 -10
-5 -2 -6 17 -1 29 -3 32 -12 17 -6 -9 -8 -27 -4 -40 3 -12 -4 -5 -15 16 -11
20 -22 37 -25 37 -2 0 -2 -25 1 -55 4 -38 2 -55 -6 -55 -7 0 -9 8 -5 23 4 15
3 18 -3 8 -7 -9 -12 -10 -16 -2 -4 6 -11 9 -16 6 -4 -3 -17 7 -28 22 l-20 28
1 -27 c1 -14 6 -24 11 -20 5 3 7 -2 3 -11 -4 -10 -2 -17 4 -17 6 0 9 -9 6 -20
-3 -11 -2 -18 2 -16 4 3 13 -5 21 -17 11 -19 11 -20 -1 -11 -8 6 -22 10 -31 9
-14 -3 -17 2 -12 19 3 14 -1 27 -10 35 -10 8 -16 9 -16 3 0 -6 5 -14 10 -17 6
-3 10 -11 10 -16 0 -6 -4 -7 -10 -4 -6 3 -11 1 -11 -4 -1 -6 -2 -17 -3 -23 -1
-7 2 -21 7 -31 5 -10 6 -22 2 -25 -9 -9 -25 19 -25 46 0 13 -4 21 -9 18 -5 -4
-3 -26 5 -53 l14 -48 -20 24 c-11 12 -18 26 -16 30 3 4 -4 8 -15 8 -19 2 -19
1 2 -28 25 -36 16 -54 -10 -20 -12 16 -21 20 -25 12 -4 -6 -2 -11 3 -11 6 0
11 -9 11 -21 0 -11 -4 -17 -10 -14 -16 10 -12 -7 6 -27 12 -12 14 -21 7 -30
-6 -7 -9 -23 -7 -36 3 -16 0 -21 -8 -16 -10 5 -10 3 0 -7 11 -12 14 -12 21 0
7 11 11 10 20 -6 5 -11 8 -22 6 -25 -3 -3 0 -19 6 -36 7 -20 7 -37 1 -48 -9
-16 -11 -15 -21 3 -7 14 -17 19 -30 16 -16 -4 -21 1 -26 23 -10 46 -14 54 -24
54 -5 0 -3 -17 5 -37 17 -50 18 -90 0 -50 -15 34 -27 25 -20 -17 4 -24 3 -27
-5 -16 -9 12 -11 10 -11 -12 0 -15 -4 -30 -10 -33 -6 -3 -10 -2 -10 3 0 6 -6
12 -14 15 -10 4 -12 0 -9 -14 3 -10 1 -19 -5 -19 -5 0 -13 12 -16 26 -4 15 -9
24 -12 21 -3 -3 5 -27 18 -54 33 -69 33 -71 9 -40 -25 30 -41 35 -41 11 0 -8
-5 -12 -10 -9 -7 4 -7 12 0 25 13 25 13 27 -5 27 -12 0 -14 -10 -9 -51 3 -27
10 -58 15 -68 6 -12 6 -18 -1 -18 -5 0 -10 6 -10 13 0 8 -4 7 -10 -3 -7 -10
-12 -11 -17 -4 -5 6 -17 14 -28 17 -19 7 -19 6 -2 -7 13 -10 15 -16 7 -21 -8
-5 -1 -19 21 -41 18 -19 28 -34 21 -34 -6 0 -15 8 -20 17 -6 9 -17 17 -25 19
-13 2 -13 -2 1 -26 10 -18 23 -27 34 -25 13 3 18 -2 18 -17 0 -18 -2 -19 -17
-7 -15 12 -16 12 -8 -1 7 -12 6 -13 -7 -3 -8 7 -18 10 -21 6 -4 -3 -13 -1 -20
5 -11 9 -13 8 -12 -7 1 -11 7 -26 14 -34 10 -13 9 -15 -4 -13 -9 1 -21 9 -26
17 -6 9 -9 10 -9 2 0 -17 20 -103 32 -132 8 -21 7 -23 -6 -11 -19 15 -20 7 -5
-23 7 -13 7 -18 1 -12 -20 20 -41 84 -30 91 6 4 8 3 4 -4 -3 -6 -2 -13 4 -17
14 -9 13 18 -2 52 -14 30 -47 67 -54 60 -2 -2 2 -10 11 -17 8 -7 15 -17 15
-23 0 -5 -8 -3 -17 6 -17 15 -18 13 -17 -23 0 -22 -3 -37 -8 -34 -5 4 -7 12
-4 20 3 8 1 14 -4 14 -5 0 -11 9 -15 19 -6 19 -19 22 -40 10 -5 -4 -18 -5 -28
-3 -14 2 -18 -2 -14 -16 4 -16 2 -17 -14 -7 -11 7 -15 15 -9 21 5 5 3 20 -6
39 -10 19 -11 27 -4 22 8 -5 11 -3 8 6 -3 8 -9 14 -14 14 -5 0 -15 4 -23 9
-15 9 -15 9 7 -43 4 -10 1 -12 -7 -6 -10 6 -11 3 -2 -14 7 -11 9 -21 5 -21 -3
0 6 -17 22 -37 17 -23 20 -32 9 -23 -17 14 -18 13 -12 -4 6 -16 5 -17 -8 -6
-8 7 -14 19 -13 26 3 12 0 14 -22 14 -19 0 -10 -25 20 -53 17 -16 30 -36 30
-46 0 -9 7 -26 16 -37 13 -16 15 -16 10 -1 -3 9 -2 17 3 17 10 0 21 -36 14
-44 -9 -8 -113 85 -113 100 0 8 -5 14 -11 14 -5 0 -7 -5 -3 -12 4 -7 3 -8 -4
-4 -13 8 -17 38 -4 33 4 -1 8 1 10 6 1 4 -1 7 -5 8 -5 0 -13 10 -20 22 -7 12
-12 18 -13 14 0 -5 5 -17 10 -27 8 -15 6 -21 -9 -29 -10 -6 -21 -8 -24 -5 -3
3 -4 -1 -3 -10 1 -8 5 -19 9 -22 13 -13 7 -23 -10 -17 -12 5 -14 3 -8 -7 6
-10 4 -12 -8 -7 -11 4 -15 1 -12 -13 3 -17 1 -18 -16 -7 -10 6 -17 18 -14 25
3 7 0 10 -5 7 -6 -3 -10 -1 -10 5 0 7 -6 10 -14 7 -7 -3 -19 0 -25 6 -8 8 -11
8 -11 0 0 -11 29 -28 43 -25 4 1 7 -3 7 -9 0 -7 -9 -9 -24 -5 -15 4 -26 1 -29
-7 -3 -7 -8 -3 -13 10 -7 17 -13 20 -24 13 -11 -7 -11 -10 -2 -10 7 0 12 -6
10 -13 -5 -20 50 -80 67 -73 8 3 17 0 21 -6 4 -7 3 -8 -4 -4 -7 4 -12 0 -13
-11 0 -10 -3 -13 -6 -5 -2 6 -9 12 -14 12 -5 0 -30 20 -56 45 -26 25 -53 43
-60 41 -7 -3 -15 -1 -18 4 -4 6 -12 10 -18 10 -8 0 -8 -3 1 -9 8 -4 13 -11 13
-15 -1 -3 -1 -7 0 -8 0 -2 2 -11 4 -21 5 -27 14 -32 27 -19 9 9 9 15 0 24 -17
17 -15 33 3 18 8 -7 15 -19 15 -26 0 -8 11 -19 25 -24 34 -13 32 -20 -5 -15
-16 2 -32 -1 -35 -6 -4 -5 -11 -9 -17 -9 -6 0 -8 3 -5 7 8 7 -11 33 -25 33 -5
0 -6 -4 -3 -10 4 -6 -7 -10 -25 -10 -22 0 -29 -4 -24 -12 5 -9 2 -8 -9 1 -11
8 -30 12 -51 8 -31 -5 -96 21 -96 39 0 3 10 0 23 -8 12 -8 28 -14 35 -13 18 0
20 20 2 21 -22 0 -72 15 -95 27 -11 6 -26 12 -34 13 -7 2 -18 7 -24 13 -14 14
12 15 47 1 21 -7 26 -6 26 5 0 9 6 12 16 8 11 -4 12 -8 4 -13 -7 -5 -2 -9 14
-12 14 -3 23 -1 20 3 -3 5 3 9 13 10 15 0 14 2 -3 9 -27 11 -43 33 -17 23 16
-6 16 -5 -1 16 -20 22 -20 22 0 15 17 -7 18 -6 4 11 -14 17 -14 18 7 7 27 -15
36 -15 27 -1 -5 8 1 10 19 7 23 -4 25 -3 17 18 -7 18 -6 22 5 17 8 -3 15 0 15
5 0 6 -9 14 -20 17 -11 4 -18 11 -15 16 3 5 1 18 -6 30 -8 15 -8 19 0 15 15
-10 33 3 24 17 -4 7 -9 21 -10 32 -3 15 -1 17 9 7 18 -18 27 -14 23 11 -5 24
-39 57 -61 57 -8 0 -14 5 -14 10 0 6 -4 9 -9 8 -5 -2 -22 11 -39 29 -17 18
-34 28 -37 23 -3 -5 10 -21 30 -36 36 -27 47 -51 19 -40 -12 5 -15 2 -10 -11
6 -15 5 -15 -13 1 -11 10 -19 23 -18 28 1 6 -6 12 -17 13 -15 3 -14 -1 9 -25
17 -17 23 -30 16 -35 -8 -4 -8 -12 0 -26 6 -12 8 -23 5 -27 -3 -3 -6 0 -6 7 0
7 -4 10 -9 6 -5 -3 -13 0 -17 6 -5 8 -3 9 7 4 8 -5 11 -4 6 1 -5 5 -12 9 -15
9 -4 0 -12 4 -19 8 -9 5 -8 -3 2 -28 19 -44 11 -45 -15 -2 -20 31 -20 31 -20
6 0 -14 6 -31 13 -38 10 -10 9 -12 -2 -9 -7 2 -16 -3 -19 -11 -2 -8 0 -11 6
-7 5 3 20 -2 33 -12 17 -15 19 -21 9 -27 -9 -5 -11 -4 -6 3 5 8 -1 12 -14 12
-12 0 -30 10 -40 23 l-19 22 6 -24 c6 -22 5 -23 -18 -10 -30 17 -57 20 -55 5
1 -6 6 -13 11 -16 6 -2 18 -11 27 -19 29 -25 11 -25 -23 -1 -17 13 -43 23 -58
24 -18 1 -25 6 -23 17 1 10 -14 27 -38 43 -50 33 -51 41 -2 21 l37 -16 -55 51
c-30 29 -42 42 -26 31 15 -11 32 -18 36 -16 5 3 11 1 15 -5 3 -5 12 -10 18
-10 8 0 8 3 -1 9 -8 4 -13 12 -13 17 1 5 -2 9 -6 10 -21 1 -80 33 -93 50 -13
16 -10 15 23 -4 31 -18 41 -20 57 -10 17 11 17 13 2 25 -15 12 -13 13 16 9 17
-2 46 -16 63 -31 35 -29 52 -26 24 5 -22 25 -9 26 19 3 12 -10 15 -11 9 -3
-20 22 -15 40 10 41 16 0 18 2 7 7 -8 4 -35 21 -59 37 -24 17 -53 36 -65 43
-19 12 -18 13 12 7 21 -4 32 -3 32 5 0 6 -4 9 -8 6 -5 -3 -23 4 -41 15 -19 11
-41 17 -49 14 -9 -3 -13 -3 -9 1 6 6 -35 31 -63 39 -39 10 -51 18 -40 25 17
11 -24 23 -49 15 -11 -3 -23 0 -27 6 -5 9 -2 10 9 6 24 -9 21 0 -4 14 -15 8
-19 8 -15 0 17 -27 -88 12 -113 42 -7 10 -23 17 -35 17 -17 0 -18 -2 -6 -10
19 -12 4 -13 -18 -1 -9 5 -31 11 -49 14 -41 6 -55 16 -47 29 5 7 0 9 -14 6
-13 -4 -20 -2 -16 3 3 6 -6 7 -23 4 -21 -5 -24 -4 -13 4 12 8 9 12 -17 17 -18
4 -33 10 -33 15 0 5 -15 9 -34 9 -19 0 -37 4 -41 10 -3 5 -13 7 -23 4 -16 -5
-16 -5 0 5 11 8 25 8 42 1 14 -5 28 -5 30 -1 8 12 -43 21 -76 14 -15 -3 -41 0
-58 5 -28 10 -45 0 -17 -11 6 -3 2 -6 -10 -6 -13 -1 -23 5 -23 12 0 8 -16 12
-45 12 -25 0 -45 -3 -45 -7 0 -5 -12 -8 -27 -8 -26 -1 -26 -2 -10 -14 16 -12
15 -13 -8 -13 -42 0 -72 -28 -78 -70 -5 -44 10 -152 23 -169 6 -6 7 -14 3 -17
-3 -4 -1 -7 6 -7 7 0 10 -4 7 -9 -3 -4 1 -17 9 -27 8 -10 15 -25 15 -33 0 -8
19 -45 42 -82 29 -47 49 -69 63 -70 11 0 15 -3 8 -5 -13 -6 52 -114 68 -114 5
0 8 -3 7 -7 -4 -14 26 -53 40 -53 7 0 10 -4 7 -10 -6 -9 62 -104 115 -160 14
-15 31 -38 38 -51 7 -13 31 -44 53 -69 22 -25 48 -57 57 -72 9 -16 20 -28 24
-28 4 0 8 -6 8 -13 0 -8 10 -22 22 -33 11 -10 41 -49 65 -86 24 -38 48 -68 53
-68 4 0 11 -14 15 -30 4 -17 17 -43 29 -58 12 -15 30 -39 39 -55 17 -26 17
-27 -3 -27 -19 0 -20 -2 -6 -15 8 -8 19 -15 24 -15 6 0 8 -9 5 -20 -4 -16 -14
-20 -52 -20 -29 0 -41 3 -33 9 10 6 8 10 -10 15 -16 5 -19 9 -9 13 10 4 8 9
-10 20 -24 14 -24 14 8 10 18 -2 30 0 27 5 -3 4 -18 8 -35 8 -16 0 -29 5 -29
10 0 6 4 10 9 10 21 0 19 32 -3 51 -15 13 -22 27 -19 37 4 10 2 13 -6 8 -6 -4
-30 2 -52 13 -22 12 -38 17 -34 12 4 -7 -50 -8 -155 -4 -118 4 -160 3 -160 -5
0 -18 -27 -14 -34 4 -6 15 -12 15 -83 4 -2 0 -3 -7 -3 -15 0 -17 -7 -18 -72
-15 -30 1 -48 -2 -48 -9 0 -6 -10 -11 -22 -11 -17 0 -19 -3 -9 -9 10 -6 6 -13
-18 -27 -17 -10 -31 -22 -31 -26 0 -4 -18 -8 -40 -8 -28 0 -40 4 -40 14 0 8
-11 17 -25 20 -27 7 -65 39 -65 56 0 6 8 18 18 28 9 9 25 30 36 46 l18 29 -27
-7 -27 -7 4 171 c3 93 1 170 -3 170 -10 0 -20 -30 -14 -41 3 -4 -2 -21 -12
-36 -13 -20 -17 -44 -16 -92 2 -75 -10 -109 -33 -90 -11 9 -14 8 -14 -9 0 -11
7 -23 16 -26 9 -4 12 -11 7 -18 -4 -7 -8 -16 -9 -20 -1 -5 -3 -11 -4 -15 -2
-5 -3 -17 -4 -28 -1 -25 -56 -36 -56 -11 0 16 -12 21 -23 10 -4 -4 3 -16 16
-27 16 -15 17 -18 5 -14 -23 8 -33 -9 -12 -21 12 -7 13 -11 4 -17 -11 -7 -24
5 -33 29 -2 5 -18 1 -35 -10 -51 -30 -54 -17 -45 206 4 107 8 273 8 367 0 95
3 173 6 173 3 0 6 6 6 13 4 114 42 749 73 1227 11 168 20 326 20 353 l0 47
-75 0 c-69 0 -91 -9 -64 -25 5 -4 8 -19 5 -33 -3 -15 -7 -81 -7 -147 -1 -66
-6 -126 -12 -132 -6 -9 -5 -18 3 -28 7 -8 8 -15 3 -15 -9 0 -14 -83 -29 -450
-3 -63 -7 -128 -9 -145 -2 -16 -9 -109 -16 -204 -10 -160 -9 -176 6 -187 15
-11 15 -13 -2 -18 -14 -5 -18 -17 -20 -58 -1 -29 -9 -136 -18 -238 -9 -102
-19 -225 -22 -275 -3 -49 -9 -94 -14 -99 -5 -6 -9 -40 -9 -77 0 -89 -10 -160
-22 -152 -6 3 -14 -1 -19 -8 -14 -22 -11 -29 11 -29 15 0 20 -7 20 -25 0 -14
-4 -25 -10 -25 -5 0 -10 7 -10 16 0 13 -3 14 -14 5 -8 -7 -12 -21 -9 -31 6
-23 19 -26 26 -7 2 6 7 9 11 6 4 -4 1 -13 -6 -20 -8 -8 -20 -29 -27 -46 -7
-18 -17 -33 -22 -33 -5 0 -9 -18 -9 -40 0 -38 -2 -40 -30 -40 -20 0 -30 5 -30
15 0 18 2 18 -49 0 -37 -13 -44 -12 -72 3 -23 12 -33 14 -36 5 -3 -9 -14 -8
-40 5 -28 13 -37 14 -40 5 -3 -8 -22 -13 -45 -13 -28 0 -39 -4 -35 -12 3 -10
-10 -13 -48 -13 -31 0 -48 3 -42 8 9 6 9 10 0 14 -24 9 14 33 51 33 30 0 36 4
36 21 0 19 -4 21 -37 14 -21 -4 -42 -12 -46 -18 -6 -9 -10 -9 -14 1 -2 6 -20
12 -38 12 -19 0 -37 5 -40 10 -3 6 -21 17 -38 26 l-32 17 24 -27 c14 -14 21
-29 18 -33 -4 -3 -7 -1 -7 5 0 6 -14 19 -31 27 -43 23 -72 53 -54 57 10 2 12
8 6 17 -7 10 -25 14 -60 12 -49 -2 -51 -1 -51 24 0 23 -4 25 -40 25 -40 0 -40
0 -40 -39 0 -22 5 -42 13 -44 9 -4 8 -8 -3 -16 -21 -15 -30 -14 -30 4 0 17
-55 21 -65 5 -3 -5 -10 -10 -16 -10 -5 0 -9 5 -9 10 0 6 7 10 15 10 8 0 15 5
15 11 0 6 11 20 25 31 14 11 25 24 25 29 0 5 -11 9 -25 9 -16 0 -25 6 -25 15
0 8 -4 15 -9 15 -5 0 -14 -7 -21 -15 -7 -8 -23 -15 -36 -15 -21 0 -24 -5 -24
-39 0 -36 3 -40 28 -43 l27 -4 -25 -11 c-19 -9 -27 -8 -36 3 -6 7 -14 11 -17
7 -10 -9 -8 245 3 457 5 102 12 237 15 300 7 142 23 451 30 585 4 55 8 138 10
185 2 47 9 155 15 240 8 110 9 155 1 158 -13 4 -15 42 -2 42 14 0 24 59 13 73
-10 12 0 261 13 335 6 30 4 32 -24 32 -24 0 -32 -5 -35 -22z m41 -370 c-3 -8
-6 -5 -6 6 -1 11 2 17 5 13 3 -3 4 -12 1 -19z m4761 -452 c0 -21 -3 -23 -14
-11 -16 16 -19 29 -4 20 6 -3 10 -1 10 4 0 6 2 11 4 11 2 0 4 -11 4 -24z
m1238 -165 c-12 -19 -24 -12 -19 10 4 13 9 17 15 11 6 -6 7 -15 4 -21z m-1726
-76 c0 -9 -6 -12 -16 -8 -13 5 -13 7 -2 14 17 11 18 11 18 -6z m1699 -36 c17
-6 31 -15 31 -19 0 -8 -25 -2 -100 23 -8 3 -3 6 11 6 14 1 40 -4 58 -10z m167
-11 c4 -7 3 -8 -4 -4 -7 4 -12 0 -12 -10 0 -10 -3 -15 -6 -11 -7 6 2 37 10 37
3 0 8 -5 12 -12z m-1789 -40 c-3 -7 -5 -2 -5 12 0 14 2 19 5 13 2 -7 2 -19 0
-25z m90 0 c-3 -8 -6 -5 -6 6 -1 11 2 17 5 13 3 -3 4 -12 1 -19z m-202 -18 c3
-5 1 -10 -4 -10 -6 0 -11 5 -11 10 0 6 2 10 4 10 3 0 8 -4 11 -10z m190 -8 c0
-18 -20 -15 -23 4 -3 10 1 15 10 12 7 -3 13 -10 13 -16z m-15 -38 c0 5 2 7 5
4 3 -3 -1 -18 -10 -34 -8 -16 -15 -23 -15 -15 0 8 -3 11 -6 8 -4 -4 -2 -12 4
-20 7 -8 7 -18 2 -27 -6 -8 -10 -19 -10 -25 0 -5 5 -3 10 5 8 12 10 9 10 -12
0 -27 -19 -41 -21 -15 0 9 -2 9 -6 -1 -10 -26 -23 1 -22 46 1 42 2 44 9 17 l8
-30 2 35 c2 19 4 40 5 45 2 6 3 21 4 35 l2 25 14 -25 c8 -14 14 -21 15 -16z
m-186 12 c4 9 9 14 12 11 3 -3 0 -15 -8 -26 -15 -21 -15 -21 -27 7 -10 24 -10
25 3 9 13 -16 14 -16 20 -1z m2196 10 c0 -3 -4 -8 -10 -11 -5 -3 -10 -1 -10 4
0 6 5 11 10 11 6 0 10 -2 10 -4z m-425 -46 c-3 -5 -12 -10 -18 -10 -7 0 -6 4
3 10 19 12 23 12 15 0z m229 -4 c-3 -8 -15 -16 -27 -19 -21 -6 -21 -6 2 14 28
23 32 24 25 5z m81 -26 c3 -5 1 -10 -4 -10 -6 0 -11 5 -11 10 0 6 2 10 4 10 3
0 8 -4 11 -10z m-1995 -22 c7 -19 9 -19 9 -5 1 10 6 15 11 12 6 -3 10 -34 10
-68 0 -51 -2 -58 -12 -44 -11 15 -13 12 -15 -19 -2 -40 -25 -66 -31 -36 -8 37
-21 34 -28 -7 -4 -23 -10 -44 -15 -47 -4 -2 -6 -11 -2 -19 4 -11 1 -13 -11 -9
-12 5 -15 2 -10 -10 3 -9 1 -16 -5 -16 -6 0 -8 -8 -4 -17 3 -10 3 -15 -1 -11
-4 3 -9 12 -11 20 -6 28 -30 78 -37 78 -4 0 -8 5 -8 10 0 5 6 9 13 8 8 -2 12
10 12 34 0 44 20 71 36 48 9 -13 10 -12 5 2 -6 20 10 34 17 16 3 -8 6 -5 6 5
1 10 -3 27 -9 37 -7 13 -6 21 5 30 12 10 15 9 15 -6 1 -15 4 -13 16 9 18 33
32 34 44 5z m107 0 c-3 -8 -6 -5 -6 6 -1 11 2 17 5 13 3 -3 4 -12 1 -19z
m-1916 -6 c-7 -2 -18 1 -23 6 -8 8 -4 9 13 5 13 -4 18 -8 10 -11z m145 -7 c10
-8 14 -15 8 -15 -5 0 -19 7 -30 15 -10 8 -14 15 -8 15 5 0 19 -7 30 -15z
m3374 -35 c-6 -12 -14 -20 -17 -17 -2 3 1 14 8 26 17 26 24 19 9 -9z m111 7
c-10 -9 -11 -8 -5 6 3 10 9 15 12 12 3 -3 0 -11 -7 -18z m-1994 -34 c-3 -10
-5 -4 -5 12 0 17 2 24 5 18 2 -7 2 -21 0 -30z m2374 23 c-9 -11 -9 -15 1 -18
7 -3 -1 -12 -20 -22 -24 -12 -37 -14 -46 -7 -7 6 -16 8 -19 4 -4 -3 -7 -4 -7
0 0 7 81 57 94 57 5 0 3 -6 -3 -14z m263 -41 c-10 -8 -23 -15 -28 -15 -6 0 -1
7 10 15 10 8 23 15 28 15 6 0 1 -7 -10 -15z m31 -15 c-3 -5 -12 -10 -18 -10
-7 0 -6 4 3 10 19 12 23 12 15 0z m-2675 -35 c0 -5 -5 -3 -10 5 -5 8 -10 20
-10 25 0 6 5 3 10 -5 5 -8 10 -19 10 -25z m-1470 0 c17 -9 30 -18 30 -21 0 -4
-59 23 -69 32 -10 9 13 3 39 -11z m1430 -20 c0 -8 -2 -15 -4 -15 -2 0 -6 7
-10 15 -3 8 -1 15 4 15 6 0 10 -7 10 -15z m2510 5 c0 -5 -5 -10 -11 -10 -5 0
-7 5 -4 10 3 6 8 10 11 10 2 0 4 -4 4 -10z m-3990 -4 c0 -2 -7 -7 -16 -10 -8
-3 -12 -2 -9 4 6 10 25 14 25 6z m1390 -66 c5 0 7 -7 4 -15 -10 -24 -24 -6
-23 28 1 24 3 26 6 10 2 -13 8 -23 13 -23z m163 -5 c2 -14 -1 -26 -7 -28 -8
-3 -8 -10 1 -24 10 -18 9 -20 -15 -20 -15 0 -21 2 -14 4 8 3 10 9 4 16 -5 7
-12 22 -14 34 -4 16 -2 20 9 16 12 -5 14 -1 9 15 -6 17 -4 21 7 16 8 -3 17
-16 20 -29z m-1048 -53 c-8 -8 -25 10 -25 26 0 13 2 13 14 -4 8 -10 13 -21 11
-22z m855 13 c4 3 10 -4 13 -15 3 -11 3 -20 1 -20 -10 0 -42 39 -36 45 4 3 8
1 10 -4 2 -6 7 -9 12 -6z m3585 -14 c-3 -6 -11 -11 -17 -11 -6 0 -6 6 2 15 14
17 26 13 15 -4z m-4883 -47 c21 -13 42 -24 47 -24 5 0 13 -4 16 -10 4 -6 -1
-7 -12 -3 -24 9 -126 63 -133 70 -11 12 48 -12 82 -33z m1578 -15 c0 -19 -5
-29 -15 -29 -8 0 -15 7 -15 15 0 8 5 15 12 15 6 0 4 8 -6 19 -17 19 -17 19 3
14 15 -4 21 -13 21 -34z m-1870 21 c20 -6 21 -8 5 -8 -11 0 -29 3 -40 8 -25
11 1 11 35 0z m-107 -7 c-7 -2 -19 -2 -25 0 -7 3 -2 5 12 5 14 0 19 -2 13 -5z
m174 -9 c-3 -3 -12 -4 -19 -1 -8 3 -5 6 6 6 11 1 17 -2 13 -5z m1694 -11 c13
-16 12 -17 -3 -4 -17 13 -22 21 -14 21 2 0 10 -8 17 -17z m3314 7 c-3 -5 -11
-10 -16 -10 -6 0 -7 5 -4 10 3 6 11 10 16 10 6 0 7 -4 4 -10z m-4879 -35 c31
-14 62 -25 69 -25 6 0 20 -8 29 -19 15 -17 15 -19 1 -25 -9 -3 -14 -2 -11 3 5
7 -43 34 -134 74 -19 9 -30 16 -23 16 7 1 38 -10 69 -24z m1411 3 c-3 -8 -6
-5 -6 6 -1 11 2 17 5 13 3 -3 4 -12 1 -19z m4070 -4 c-3 -3 -12 -4 -19 -1 -8
3 -5 6 6 6 11 1 17 -2 13 -5z m-5316 -16 c19 -6 47 -20 63 -31 16 -12 26 -16
22 -9 -4 7 -3 12 3 12 5 0 13 -4 16 -10 3 -5 14 -10 24 -10 9 0 33 -17 52 -37
22 -25 24 -29 7 -14 -16 14 -28 20 -28 15 0 -5 -5 -1 -11 9 -11 18 -39 24 -39
7 0 -17 -28 -11 -42 8 -7 10 -28 24 -46 30 -36 12 -82 42 -66 42 6 0 26 -5 45
-12z m1483 -4 c9 -24 2 -26 -12 -4 -7 11 -8 20 -3 20 5 0 12 -7 15 -16z m-584
-9 c11 -13 10 -14 -4 -9 -9 3 -16 10 -16 15 0 13 6 11 20 -6z m3990 -10 c-14
-8 -32 -14 -40 -14 -8 0 -1 7 15 14 39 18 57 18 25 0z m-4922 -20 c-3 -3 -9 2
-12 12 -6 14 -5 15 5 6 7 -7 10 -15 7 -18z m-101 -21 c-7 -7 -37 7 -37 17 0 6
9 5 21 -1 11 -7 19 -14 16 -16z m157 -3 c4 -5 -5 -4 -19 2 -14 7 -25 16 -25
20 0 9 36 -9 44 -22z m-99 -11 c3 -6 -1 -7 -9 -4 -18 7 -21 14 -7 14 6 0 13
-4 16 -10z m4885 6 c0 -2 -9 -6 -20 -9 -11 -3 -18 -1 -14 4 5 9 34 13 34 5z
m613 -13 c-7 -2 -19 -2 -25 0 -7 3 -2 5 12 5 14 0 19 -2 13 -5z m-4349 -29 c3
-8 2 -12 -4 -9 -6 3 -10 10 -10 16 0 14 7 11 14 -7z m4566 -8 c0 -2 -7 -7 -16
-10 -8 -3 -12 -2 -9 4 6 10 25 14 25 6z m-4785 -56 c13 -25 13 -29 1 -24 -14
5 -26 25 -32 52 -4 20 15 3 31 -28z m-156 -36 c-9 -11 -15 -12 -25 -3 -11 9
-12 15 -3 25 9 11 15 12 25 3 11 -9 12 -15 3 -25z m-454 -10 c19 -15 23 -22
11 -18 -21 8 -61 44 -48 44 4 -1 21 -12 37 -26z m534 -25 c-7 -4 -8 -12 -3
-20 6 -12 5 -12 -8 -1 -9 8 -14 20 -11 28 3 8 -1 22 -8 32 -7 9 -1 6 14 -7 18
-16 23 -27 16 -32z m51 -9 c0 -4 -7 -7 -15 -7 -8 0 -13 2 -10 5 2 3 -1 14 -7
26 -11 21 -11 21 11 2 11 -11 21 -22 21 -26z m5030 -20 c-8 -5 -22 -10 -30
-10 -13 0 -13 1 0 10 8 5 22 10 30 10 13 0 13 -1 0 -10z m-5355 -31 c13 -20 0
-15 -25 9 -23 22 -23 24 -3 13 12 -6 25 -16 28 -22z m-88 15 c-3 -3 -12 -4
-19 -1 -8 3 -5 6 6 6 11 1 17 -2 13 -5z m97 -58 c3 2 4 1 1 -3 -8 -11 16 -32
30 -27 7 3 16 1 20 -5 4 -7 0 -8 -11 -4 -14 5 -15 3 -5 -15 6 -11 23 -30 37
-41 15 -12 22 -21 16 -21 -6 0 -14 5 -17 10 -4 6 -11 7 -17 4 -7 -4 -8 -2 -4
4 4 6 -5 19 -19 28 -14 9 -23 19 -20 22 2 3 -8 15 -24 26 -15 12 -26 26 -24
33 2 6 -5 17 -16 23 -12 6 -21 16 -21 23 0 7 16 -4 35 -25 18 -20 36 -34 39
-32z m76 -26 c6 -11 8 -20 4 -20 -3 0 0 -8 7 -17 13 -16 12 -17 -3 -4 -10 7
-16 17 -13 21 3 5 -6 17 -20 28 -14 11 -25 23 -25 26 0 13 40 -15 50 -34z
m290 -1 c0 -6 -4 -7 -10 -4 -5 3 -10 11 -10 16 0 6 5 7 10 4 6 -3 10 -11 10
-16z m3853 10 c50 -27 42 -62 -12 -57 -42 4 -58 36 -21 45 16 4 18 8 8 14 -20
13 0 11 25 -2z m-4758 -19 c3 -6 -1 -7 -9 -4 -18 7 -21 14 -7 14 6 0 13 -4 16
-10z m-175 -35 c-7 -8 -18 -15 -24 -15 -6 0 -2 7 8 15 25 19 32 19 16 0z m733
-10 c21 -9 22 -31 1 -39 -8 -3 -13 -2 -9 3 3 5 2 17 -1 26 -5 12 -9 13 -14 5
-5 -8 -9 -7 -13 3 -6 15 4 16 36 2z m-384 -51 c2 -2 -5 -4 -16 -4 -12 0 -23 7
-27 15 -5 13 -2 14 17 4 12 -6 24 -13 26 -15z m450 -39 c0 -5 -3 -4 -6 3 -2 6
-9 10 -14 6 -5 -3 -9 0 -9 6 0 6 -3 9 -7 7 -5 -3 -17 -1 -27 3 -17 6 -18 7 -3
13 9 3 17 2 17 -4 0 -6 5 -7 10 -4 6 4 8 12 4 18 -3 7 4 1 15 -13 11 -14 20
-29 20 -35z m-415 -11 c-1 -5 6 -14 15 -21 9 -6 13 -15 9 -18 -4 -4 -24 6 -45
23 -21 16 -53 33 -70 37 -18 3 -35 10 -37 14 -3 4 25 0 62 -9 37 -9 67 -21 66
-26z m4599 39 c-7 -2 -21 -2 -30 0 -10 3 -4 5 12 5 17 0 24 -2 18 -5z m-4691
-41 c-6 -2 -9 -9 -5 -15 4 -7 0 -8 -11 -4 -10 4 -25 7 -33 7 -12 0 -13 3 -4
14 7 8 22 11 39 8 15 -3 21 -7 14 -10z m552 -13 c-3 -5 -10 -7 -15 -3 -5 3 -7
10 -3 15 3 5 10 7 15 3 5 -3 7 -10 3 -15z m-482 -39 c20 -12 26 -20 17 -20 -9
0 -27 9 -40 20 -31 25 -18 25 23 0z m-155 -6 c-3 -3 -12 -4 -19 -1 -8 3 -5 6
6 6 11 1 17 -2 13 -5z m25 -17 c-9 -10 -1 -17 38 -31 29 -10 61 -15 75 -12 16
4 25 2 25 -5 0 -6 6 -9 13 -6 8 3 14 -1 14 -8 0 -7 -8 -10 -19 -7 -10 2 -26
-2 -35 -9 -12 -10 -14 -10 -9 -1 5 8 -1 12 -22 12 -16 0 -44 3 -62 7 -24 4
-31 3 -26 -5 5 -8 -2 -12 -19 -12 -14 0 -24 4 -21 9 4 5 0 12 -6 15 -7 3 13 4
44 3 31 -2 55 0 52 5 -3 4 -12 8 -20 8 -9 0 -24 5 -35 11 -20 10 -20 11 -2 24
23 18 28 19 15 2z m123 -7 c3 -6 -4 -10 -17 -10 -18 0 -20 2 -8 10 19 12 18
12 25 0z m475 -5 c10 -12 10 -15 -4 -15 -9 0 -16 7 -16 15 0 8 2 15 4 15 2 0
9 -7 16 -15z m-3775 -42 l18 -28 -21 19 c-12 11 -22 23 -22 28 0 14 7 9 25
-19z m1855 -23 c0 -5 -4 -10 -10 -10 -5 0 -10 5 -10 10 0 6 5 10 10 10 6 0 10
-4 10 -10z m-1690 -4 c0 -3 -4 -8 -10 -11 -5 -3 -10 -1 -10 4 0 6 5 11 10 11
6 0 10 -2 10 -4z m1530 -6 c0 -5 -2 -10 -4 -10 -3 0 -8 5 -11 10 -3 6 -1 10 4
10 6 0 11 -4 11 -10z m1410 -1 c-11 -8 -8 -9 15 -5 17 2 46 7 65 10 19 3 42 1
50 -5 12 -8 10 -9 -10 -5 -14 3 -32 1 -40 -4 -12 -8 -12 -10 5 -10 12 0 16 -3
9 -10 -5 -5 -24 -6 -47 0 -36 8 -37 7 -23 -9 14 -16 13 -17 -19 -13 -22 3 -35
10 -35 18 0 8 -8 18 -17 22 -14 5 -12 8 12 13 45 10 51 10 35 -2z m275 1 c3
-6 -1 -7 -9 -4 -18 7 -21 14 -7 14 6 0 13 -4 16 -10z m-1735 -21 c0 -5 7 -6
16 -2 12 4 15 2 12 -8 -3 -8 -12 -13 -21 -13 -10 1 -18 -9 -22 -27 -9 -40 -29
-38 -21 2 3 17 6 37 6 44 0 6 7 12 15 12 8 0 15 -4 15 -8z m-1585 -9 c-3 -5
-11 -10 -16 -10 -6 0 -7 5 -4 10 3 6 11 10 16 10 6 0 7 -4 4 -10z m1755 1 c0
-6 -4 -13 -10 -16 -5 -3 -10 1 -10 9 0 9 5 16 10 16 6 0 10 -4 10 -9z m1173 2
c-7 -2 -19 -2 -25 0 -7 3 -2 5 12 5 14 0 19 -2 13 -5z m-2913 -33 c0 -5 -4
-10 -10 -10 -5 0 -10 5 -10 10 0 6 5 10 10 10 6 0 10 -4 10 -10z m3146 0 c20
0 17 -18 -3 -23 -14 -4 -13 -5 4 -6 12 0 25 -6 29 -13 4 -7 3 -8 -4 -4 -7 4
-12 4 -12 -1 0 -4 -26 -9 -57 -10 -37 -1 -52 2 -42 8 11 7 10 9 -6 8 -11 0
-29 -4 -40 -9 l-20 -8 20 -7 c51 -18 71 -24 90 -28 14 -3 12 -5 -8 -6 -15 0
-43 6 -63 14 -19 8 -41 12 -49 8 -26 -9 -7 20 28 45 27 20 28 23 8 17 -17 -5
-21 -4 -16 5 4 6 17 9 30 6 13 -3 34 -2 47 3 13 6 29 8 36 5 8 -2 20 -4 28 -4z
m-238 -14 c-7 -8 -15 -12 -17 -11 -5 6 10 25 20 25 5 0 4 -6 -3 -14z m46 0
c-3 -8 2 -16 13 -19 15 -4 15 -5 -3 -6 -14 -1 -24 6 -27 19 -3 13 0 20 9 20 7
0 11 -6 8 -14z m329 7 c-7 -2 -19 -2 -25 0 -7 3 -2 5 12 5 14 0 19 -2 13 -5z
m-1406 -9 c-3 -3 -12 -4 -19 -1 -8 3 -5 6 6 6 11 1 17 -2 13 -5z m1499 -22
c-4 -3 -14 2 -24 12 -16 18 -16 18 6 6 13 -6 21 -14 18 -18z m-1433 1 c-13 -2
-33 -2 -45 0 -13 2 -3 4 22 4 25 0 35 -2 23 -4z m1017 -37 c0 -2 -7 -6 -15
-10 -8 -3 -15 -1 -15 4 0 6 7 10 15 10 8 0 15 -2 15 -4z m-233 -12 c-3 -3 -12
-4 -19 -1 -8 3 -5 6 6 6 11 1 17 -2 13 -5z m303 -12 c0 -5 -13 -8 -29 -8 -17
0 -28 3 -25 8 3 4 16 8 30 8 13 0 24 -4 24 -8z m-22 -29 c45 0 72 -12 31 -14
-52 -3 -69 -7 -84 -19 -17 -14 -87 -32 -80 -20 3 5 -1 11 -7 14 -7 4 4 4 25 2
20 -3 35 -1 32 4 -3 4 1 10 7 13 7 3 -7 9 -32 13 l-45 9 40 5 c22 3 47 3 55
-1 8 -3 34 -6 58 -6z m-271 1 c-3 -3 -12 -4 -19 -1 -8 3 -5 6 6 6 11 1 17 -2
13 -5z m316 -31 c-7 -2 -19 -2 -25 0 -7 3 -2 5 12 5 14 0 19 -2 13 -5z m-4
-20 c3 -2 -12 -2 -31 -1 -20 2 -34 6 -31 11 4 6 52 -1 62 -10z m-1969 -22 c0
-5 -26 -11 -57 -15 -32 -3 -71 -8 -86 -10 -21 -2 -27 0 -23 10 4 10 -4 14 -27
15 l-32 1 29 7 c38 8 196 2 196 -8z m-262 3 c36 -10 25 -24 -18 -24 -29 0 -40
4 -40 15 0 16 20 19 58 9z m532 -4 c67 7 198 2 214 -7 12 -6 -3 -8 -46 -6 -35
1 -57 0 -50 -3 25 -12 11 -25 -20 -19 -18 3 -89 7 -157 10 -68 2 -126 6 -128
9 -3 3 -2 10 2 16 5 8 28 10 79 4 39 -4 87 -6 106 -4z m1549 -6 c10 -9 -56 -3
-69 7 -11 7 -4 8 25 3 22 -4 42 -8 44 -10z m-1196 -1 c-13 -2 -33 -2 -45 0
-13 2 -3 4 22 4 25 0 35 -2 23 -4z m177 -3 c0 -5 -12 -10 -27 -9 l-28 1 25 8
c14 4 26 8 28 9 1 1 2 -3 2 -9z m167 2 c6 -4 -11 -7 -37 -7 -26 0 -46 3 -43 8
5 9 64 9 80 -1z m-250 -8 c-3 -3 -12 -4 -19 -1 -8 3 -5 6 6 6 11 1 17 -2 13
-5z m300 0 c-3 -3 -12 -4 -19 -1 -8 3 -5 6 6 6 11 1 17 -2 13 -5z m278 -14 c3
-5 1 -10 -4 -10 -6 0 -11 5 -11 10 0 6 2 10 4 10 3 0 8 -4 11 -10z m-1508 -6
c-3 -3 -12 -4 -19 -1 -8 3 -5 6 6 6 11 1 17 -2 13 -5z m1953 2 c0 -3 -4 -8
-10 -11 -5 -3 -10 -1 -10 4 0 6 5 11 10 11 6 0 10 -2 10 -4z m106 -12 c10 -8
14 -13 8 -10 -6 3 -20 -1 -30 -9 -28 -21 -41 -18 -15 4 l22 19 -36 0 c-20 0
-39 3 -42 6 -14 14 75 5 93 -10z m-126 -24 c0 -5 -2 -10 -4 -10 -3 0 -8 5 -11
10 -3 6 -1 10 4 10 6 0 11 -4 11 -10z m-440 -30 c0 -5 -4 -10 -10 -10 -5 0
-10 5 -10 10 0 6 5 10 10 10 6 0 10 -4 10 -10z m590 0 c0 -5 -6 -10 -12 -11
-7 0 -23 -2 -35 -3 -13 -2 -23 2 -23 7 0 5 9 7 20 4 11 -3 23 -1 26 4 7 12 24
11 24 -1z m-15 -40 c-3 -5 -14 -10 -23 -9 -14 0 -13 2 3 9 27 11 27 11 20 0z
m-149 -137 c-2 -16 -5 -31 -5 -34 -2 -15 -31 -18 -31 -3 0 8 5 12 11 8 6 -4 9
1 8 12 -3 18 7 44 17 44 3 0 3 -12 0 -27z m-531 -63 c13 -5 14 -9 5 -9 -8 0
-24 4 -35 9 -13 5 -14 9 -5 9 8 0 24 -4 35 -9z m442 -87 c-10 -3 -14 -9 -10
-16 4 -7 -2 -5 -13 3 -10 8 -21 16 -23 17 -2 2 11 2 30 2 19 -1 26 -3 16 -6z
m1778 -123 c5 -19 4 -21 -4 -10 -9 12 -11 10 -11 -12 0 -16 -4 -28 -10 -28 -5
0 -7 -8 -4 -17 5 -14 4 -15 -4 -4 -7 9 -5 25 5 49 8 19 11 42 8 51 -4 10 -3
12 3 6 5 -5 13 -21 17 -35z m-138 -62 c-3 -8 -6 -5 -6 6 -1 11 2 17 5 13 3 -3
4 -12 1 -19z m60 -15 c-3 -10 -5 -4 -5 12 0 17 2 24 5 18 2 -7 2 -21 0 -30z
m13 -39 c0 -12 -4 -12 -20 -2 -11 7 -20 16 -20 19 0 4 9 5 20 2 11 -3 20 -12
20 -19z m32 -6 c-9 -9 -12 -7 -12 12 0 19 3 21 12 12 9 -9 9 -15 0 -24z m73
-29 c-3 -18 -7 -34 -11 -38 -3 -3 -3 10 -1 29 6 41 6 40 11 40 3 0 3 -14 1
-31z m-78 -31 c-3 -8 -6 -5 -6 6 -1 11 2 17 5 13 3 -3 4 -12 1 -19z m-37 -29
c0 -6 -4 -7 -10 -4 -5 3 -10 11 -10 16 0 6 5 7 10 4 6 -3 10 -11 10 -16z
m-3833 -21 c-3 -7 -5 -2 -5 12 0 14 2 19 5 13 2 -7 2 -19 0 -25z m3864 -35
c13 -16 12 -17 -3 -4 -17 13 -22 21 -14 21 2 0 10 -8 17 -17z m55 -38 c-14
-14 -16 -14 -16 -2 0 9 6 17 13 20 19 7 21 -1 3 -18z m-86 -1 c0 -8 -4 -12
-10 -9 -5 3 -10 2 -10 -4 0 -5 9 -13 20 -16 21 -7 26 -37 13 -83 -4 -18 -8
-20 -14 -10 -6 9 -9 7 -9 -9 l0 -22 -25 23 c-14 13 -25 26 -25 30 0 9 24 3 32
-9 4 -6 8 -2 8 7 0 14 -7 17 -34 14 l-33 -5 21 24 c18 20 22 22 27 8 3 -11 8
-13 12 -6 4 6 3 21 -1 34 -6 15 -5 28 2 36 15 17 26 16 26 -3z m49 9 c0 -5 -4
-17 -9 -28 -8 -18 -9 -17 -9 8 -1 15 4 27 9 27 6 0 10 -3 9 -7z m-148 -56 c-8
-8 -11 -7 -11 4 0 20 13 34 18 19 3 -7 -1 -17 -7 -23z m40 -134 c-9 -15 -10
-14 -7 7 8 44 8 45 13 28 2 -10 0 -25 -6 -35z m-73 -68 c-3 -3 -9 2 -12 12 -6
14 -5 15 5 6 7 -7 10 -15 7 -18z m-1641 -241 c-3 -3 -12 -4 -19 -1 -8 3 -5 6
6 6 11 1 17 -2 13 -5z m79 -18 c1 -10 8 -22 14 -26 19 -11 -6 -23 -34 -16 -17
4 -23 13 -23 36 0 25 4 30 20 28 11 -2 21 -12 23 -22z m329 -26 c-3 -5 -14
-10 -23 -9 -14 0 -13 2 3 9 27 11 27 11 20 0z m-370 -68 c-3 -8 -5 -18 -5 -23
0 -4 -7 -6 -16 -2 -8 3 -13 12 -10 19 3 7 1 16 -5 19 -5 4 -7 10 -4 15 9 14
46 -13 40 -28z m2559 -534 c-9 -13 -10 -18 -13 -38 0 -5 -10 -10 -21 -10 -33
0 -27 46 8 58 31 11 37 9 26 -10z m661 -69 c4 -6 13 -8 20 -5 8 3 20 -5 28
-18 l15 -23 -55 4 c-64 4 -90 18 -72 39 14 17 55 18 64 3z m-1425 -33 c0 -2
-7 -7 -16 -10 -8 -3 -12 -2 -9 4 6 10 25 14 25 6z m1560 -6 c0 -5 -9 -14 -20
-20 -22 -12 -27 -1 -8 18 14 14 28 16 28 2z m-1500 -30 c0 -5 -2 -10 -4 -10
-3 0 -8 5 -11 10 -3 6 -1 10 4 10 6 0 11 -4 11 -10z m1865 -32 c4 4 6 1 3 -7
-2 -8 -10 -17 -18 -19 -7 -3 -10 0 -6 7 4 6 1 11 -8 11 -8 0 -18 -6 -22 -12
-4 -7 -4 -10 1 -6 8 8 35 -9 35 -22 0 -13 -48 -29 -69 -23 -12 3 -28 0 -36 -7
-8 -6 -18 -9 -23 -7 -4 3 -14 2 -21 -2 -13 -8 -60 5 -96 27 -20 12 -20 12 5
31 18 14 27 16 33 8 5 -9 11 -7 21 6 14 17 46 14 46 -5 0 -16 74 -5 93 14 13
14 23 16 36 8 10 -5 22 -6 26 -2z m35 -12 c0 -3 -4 -8 -10 -11 -5 -3 -10 -1
-10 4 0 6 5 11 10 11 6 0 10 -2 10 -4z m-1005 -56 c-3 -5 -11 -10 -16 -10 -6
0 -7 5 -4 10 3 6 11 10 16 10 6 0 7 -4 4 -10z m2388 -54 c12 -8 37 -17 55 -21
23 -5 32 -12 32 -26 0 -23 -3 -23 -55 -4 -22 8 -58 14 -80 15 -45 0 -110 34
-99 51 9 15 117 4 147 -15z"/>
<path d="M4706 3743 c-6 -14 -5 -15 5 -6 7 7 10 15 7 18 -3 3 -9 -2 -12 -12z"/>
<path d="M4650 3584 c0 -17 14 -18 28 -1 8 10 6 13 -9 14 -10 1 -19 -5 -19
-13z"/>
<path d="M6915 3720 c-3 -5 -2 -10 4 -10 5 0 13 5 16 10 3 6 2 10 -4 10 -5 0
-13 -4 -16 -10z"/>
<path d="M4511 1513 c0 -29 2 -33 8 -18 7 18 4 55 -5 55 -2 0 -4 -17 -3 -37z"/>
<path d="M9044 5028 c3 -46 8 -126 11 -178 3 -52 10 -121 16 -153 5 -31 8 -61
6 -65 -3 -4 -1 -25 3 -47 4 -23 8 77 9 243 l1 282 -26 0 -26 0 6 -82z"/>
<path d="M5371 4694 c0 -11 3 -14 6 -6 3 7 2 16 -1 19 -3 4 -6 -2 -5 -13z"/>
<path d="M4954 4383 c3 -6 2 -14 -4 -18 -5 -3 -10 -14 -10 -23 0 -13 4 -11 16
7 13 18 14 25 4 34 -10 9 -11 9 -6 0z"/>
<path d="M5002 4340 c0 -19 2 -27 5 -17 2 9 2 25 0 35 -3 9 -5 1 -5 -18z"/>
<path d="M4383 4275 c0 -8 4 -15 9 -15 4 0 8 4 8 9 0 6 -4 12 -8 15 -5 3 -9
-1 -9 -9z"/>
<path d="M4831 4274 c0 -11 3 -14 6 -6 3 7 2 16 -1 19 -3 4 -6 -2 -5 -13z"/>
<path d="M1925 4141 c-3 -5 -1 -12 5 -16 12 -7 30 2 30 16 0 12 -27 12 -35 0z"/>
<path d="M6525 4079 c-4 -6 -5 -12 -2 -15 2 -3 7 2 10 11 7 17 1 20 -8 4z"/>
<path d="M4470 4012 c0 -14 6 -22 16 -22 14 0 15 3 3 18 -7 9 -15 19 -16 21
-2 2 -3 -5 -3 -17z"/>
<path d="M4510 4001 c0 -10 19 -25 25 -20 1 2 -3 10 -11 17 -8 7 -14 8 -14 3z"/>
<path d="M4554 3976 c-6 -16 14 -61 24 -52 3 4 0 12 -6 18 -15 15 -16 41 0 32
7 -4 8 -3 4 4 -9 16 -15 15 -22 -2z"/>
<path d="M6703 3975 c0 -8 4 -12 9 -9 5 3 6 10 3 15 -9 13 -12 11 -12 -6z"/>
<path d="M4410 3973 c0 -15 28 -43 43 -43 6 0 5 5 -4 13 -8 6 -20 19 -26 27
-8 8 -13 9 -13 3z"/>
<path d="M6960 3945 c-7 -8 -23 -15 -36 -15 -22 0 -41 -16 -31 -26 7 -7 61 21
76 40 8 9 11 16 8 16 -2 0 -10 -7 -17 -15z"/>
<path d="M7836 3942 c-3 -5 1 -9 9 -9 8 0 15 4 15 9 0 4 -4 8 -9 8 -6 0 -12
-4 -15 -8z"/>
<path d="M6747 3933 c-4 -3 -7 -11 -7 -17 0 -6 5 -5 12 2 6 6 9 14 7 17 -3 3
-9 2 -12 -2z"/>
<path d="M7887 3930 c-21 -4 -44 -16 -51 -26 -29 -40 -52 -62 -86 -79 -19 -10
-38 -23 -42 -29 -4 -6 -8 -7 -8 -2 0 10 -30 -13 -30 -23 0 -4 17 -7 38 -6 34
0 38 3 37 25 0 15 5 24 13 22 7 -1 23 3 35 9 19 10 18 8 -6 -18 -15 -16 -25
-32 -22 -35 10 -9 -45 -39 -58 -32 -7 4 -8 3 -4 -1 4 -5 -3 -15 -15 -23 -22
-12 -21 -13 15 -8 22 3 35 1 32 -5 -4 -5 -13 -9 -21 -9 -8 0 -14 -4 -14 -10 0
-5 16 -7 35 -5 27 4 33 2 29 -10 -4 -8 -9 -15 -13 -15 -4 0 -16 -7 -27 -16
-18 -14 -18 -15 5 -4 18 9 25 9 31 1 10 -18 97 22 105 48 3 12 10 19 15 16 5
-3 11 -1 15 4 3 6 -5 8 -20 5 -14 -2 -25 -2 -25 1 0 4 22 28 49 56 26 27 43
49 35 49 -7 0 -15 -6 -17 -12 -4 -10 -6 -10 -6 -1 -1 7 8 17 19 23 11 6 18 16
14 21 -3 6 2 19 12 30 26 28 8 36 -21 9 -26 -24 -47 -21 -26 4 9 11 25 59 18
55 -1 -1 -19 -5 -40 -9z m-47 -244 c0 -7 -72 -47 -77 -42 -3 2 12 14 34 25 42
22 43 23 43 17z"/>
<path d="M4450 3915 c0 -5 5 -17 10 -25 5 -8 10 -10 10 -5 0 6 -5 17 -10 25
-5 8 -10 11 -10 5z"/>
<path d="M7622 3874 c-26 -25 -37 -41 -25 -35 34 17 48 14 32 -6 -13 -16 -12
-17 3 -4 10 7 16 17 13 21 -2 4 3 16 13 26 17 20 26 44 17 44 -3 0 -26 -21
-53 -46z"/>
<path d="M7045 3890 c3 -5 8 -10 11 -10 2 0 4 5 4 10 0 6 -5 10 -11 10 -5 0
-7 -4 -4 -10z"/>
<path d="M7134 3869 c-19 -22 -19 -22 3 -10 24 12 39 31 25 31 -5 0 -17 -10
-28 -21z"/>
<path d="M7717 3861 c-53 -31 -73 -48 -66 -56 9 -8 86 33 113 60 33 33 13 31
-47 -4z"/>
<path d="M7165 3847 c-30 -16 -35 -23 -22 -25 10 -2 30 8 44 22 31 31 30 31
-22 3z"/>
<path d="M4497 3778 c8 -57 13 -61 13 -10 0 22 -4 43 -9 46 -5 4 -7 -12 -4
-36z"/>
<path d="M3680 3701 c0 -6 4 -13 10 -16 6 -3 7 1 4 9 -7 18 -14 21 -14 7z"/>
<path d="M3630 3678 c8 -7 16 -19 18 -27 3 -12 0 -12 -12 -1 -9 7 -16 9 -16 4
0 -5 -7 -1 -14 9 -18 24 -31 4 -15 -24 8 -15 8 -19 0 -15 -6 4 -11 1 -11 -6
-1 -9 -5 -8 -13 4 -12 15 -14 15 -25 -3 -7 -11 -17 -17 -22 -14 -6 4 -8 10 -6
14 6 9 -2 20 -31 45 -33 27 -28 10 5 -21 25 -24 25 -25 5 -19 -33 10 -28 1 11
-23 19 -12 42 -19 52 -15 15 5 16 4 4 -4 -12 -9 -9 -13 13 -21 35 -13 73 -8
69 10 -1 8 5 5 13 -5 8 -11 15 -14 15 -8 0 7 -9 21 -21 33 -11 11 -19 23 -16
25 2 2 17 -8 32 -23 22 -22 26 -24 17 -7 -6 12 -9 24 -6 27 3 3 0 8 -7 13 -8
5 -10 3 -4 -6 5 -9 4 -11 -4 -6 -9 6 -9 11 -1 21 14 17 7 31 -23 45 -19 9 -20
9 -7 -2z m-10 -106 c0 -5 -7 -9 -15 -9 -8 0 -12 4 -9 9 3 4 9 8 15 8 5 0 9 -4
9 -8z"/>
<path d="M3520 3665 c0 -5 5 -17 10 -25 5 -8 10 -10 10 -5 0 6 -5 17 -10 25
-5 8 -10 11 -10 5z"/>
<path d="M8420 3620 c-9 -6 -10 -10 -3 -10 6 0 15 5 18 10 8 12 4 12 -15 0z"/>
<path d="M7795 3594 c-51 -19 -71 -38 -30 -29 55 12 95 26 100 36 9 13 -24 10
-70 -7z"/>
<path d="M3176 3575 c10 -8 26 -14 34 -14 11 0 10 3 -4 14 -11 8 -27 15 -35
15 -11 0 -10 -4 5 -15z"/>
<path d="M7820 3560 c-14 -4 -18 -9 -10 -9 8 -1 -1 -11 -20 -21 l-35 -20 30 6
c41 9 67 23 60 34 -3 4 1 11 7 13 20 8 -4 6 -32 -3z"/>
<path d="M3410 3540 c6 -11 13 -20 16 -20 2 0 0 9 -6 20 -6 11 -13 20 -16 20
-2 0 0 -9 6 -20z"/>
<path d="M8498 3553 c7 -3 16 -2 19 1 4 3 -2 6 -13 5 -11 0 -14 -3 -6 -6z"/>
<path d="M3257 3529 c7 -7 15 -10 18 -7 3 3 -2 9 -12 12 -14 6 -15 5 -6 -5z"/>
<path d="M4314 3525 c11 -8 22 -12 25 -9 6 6 -19 24 -34 24 -5 -1 -1 -7 9 -15z"/>
<path d="M7840 3520 c-14 -11 -19 -20 -12 -20 8 0 10 -5 6 -12 -4 -7 -5 -11
-1 -8 3 3 5 8 4 11 -1 4 7 16 17 28 24 26 19 27 -14 1z"/>
<path d="M4067 3503 c-9 -15 3 -44 14 -37 5 3 9 1 9 -4 0 -6 7 -12 15 -16 22
-8 18 9 -8 40 -15 17 -26 23 -30 17z"/>
<path d="M8510 3500 c-12 -7 -10 -9 8 -7 12 0 22 5 22 9 0 11 -12 10 -30 -2z"/>
<path d="M8585 3500 c-23 -9 -53 -40 -39 -40 5 0 27 11 49 25 38 23 32 33 -10
15z"/>
<path d="M3350 3471 c0 -5 7 -12 16 -15 14 -5 15 -4 4 9 -14 17 -20 19 -20 6z"/>
<path d="M4330 3474 c0 -5 7 -18 15 -28 12 -16 15 -17 15 -4 0 8 -7 21 -15 28
-8 7 -15 9 -15 4z"/>
<path d="M8640 3470 c-12 -8 -12 -10 5 -10 11 0 27 5 35 10 12 8 12 10 -5 10
-11 0 -27 -5 -35 -10z"/>
<path d="M3290 3461 c0 -5 5 -13 10 -16 6 -3 10 -2 10 4 0 5 -4 13 -10 16 -5
3 -10 2 -10 -4z"/>
<path d="M4231 3453 c7 -12 15 -20 18 -17 3 2 -3 12 -13 22 -17 16 -18 16 -5
-5z"/>
<path d="M9075 3460 c3 -5 8 -10 11 -10 2 0 4 5 4 10 0 6 -5 10 -11 10 -5 0
-7 -4 -4 -10z"/>
<path d="M8870 3430 c-9 -6 -10 -10 -3 -10 6 0 15 5 18 10 8 12 4 12 -15 0z"/>
<path d="M8977 3413 c-26 -14 -46 -28 -43 -30 4 -4 65 25 96 46 29 20 -6 10
-53 -16z"/>
<path d="M9065 3430 c-3 -6 1 -7 9 -4 18 7 21 14 7 14 -6 0 -13 -4 -16 -10z"/>
<path d="M3969 3417 c6 -8 7 -18 3 -22 -4 -5 -1 -5 6 -1 10 6 10 11 1 22 -6 8
-14 14 -16 14 -3 0 0 -6 6 -13z"/>
<path d="M3593 3400 c14 -23 23 -25 33 -8 4 7 3 8 -4 4 -7 -4 -12 -3 -12 2 0
6 -7 12 -15 16 -12 4 -13 2 -2 -14z"/>
<path d="M3754 3391 c1 -28 44 -87 54 -76 3 3 11 0 19 -7 8 -6 13 -7 12 -2 -4
24 2 33 18 27 10 -4 -5 14 -32 40 -28 26 -55 47 -61 47 -7 0 -11 -13 -10 -29z
m41 -29 c-3 -3 -11 0 -18 7 -9 10 -8 11 6 5 10 -3 15 -9 12 -12z"/>
<path d="M8985 3390 c-8 -13 15 -13 35 0 12 8 11 10 -7 10 -12 0 -25 -4 -28
-10z"/>
<path d="M3725 3320 c3 -5 8 -10 11 -10 2 0 4 5 4 10 0 6 -5 10 -11 10 -5 0
-7 -4 -4 -10z"/>
<path d="M3850 3306 c0 -9 5 -16 10 -16 6 0 10 4 10 9 0 6 -4 13 -10 16 -5 3
-10 -1 -10 -9z"/>
<path d="M3755 3299 c-4 -6 -4 -13 -1 -16 3 -4 6 -1 6 6 0 7 5 9 12 5 7 -4 8
-3 4 4 -9 15 -13 15 -21 1z"/>
<path d="M3790 3280 c0 -5 5 -10 11 -10 5 0 7 5 4 10 -3 6 -8 10 -11 10 -2 0
-4 -4 -4 -10z"/>
<path d="M4060 3251 c0 -6 4 -13 10 -16 6 -3 7 1 4 9 -7 18 -14 21 -14 7z"/>
<path d="M1931 3223 c0 -12 -4 -30 -7 -40 -5 -14 -4 -15 5 -7 7 6 11 24 8 40
-3 21 -4 23 -6 7z"/>
<path d="M3616 3155 c4 -8 10 -12 15 -9 11 6 2 24 -11 24 -5 0 -7 -7 -4 -15z"/>
<path d="M3736 3152 c-3 -5 1 -9 9 -9 8 0 12 4 9 9 -3 4 -7 8 -9 8 -2 0 -6 -4
-9 -8z"/>
<path d="M1870 3129 c0 -5 5 -7 10 -4 6 3 10 8 10 11 0 2 -4 4 -10 4 -5 0 -10
-5 -10 -11z"/>
<path d="M890 2936 c7 -7 13 -7 20 0 6 6 3 10 -10 10 -13 0 -16 -4 -10 -10z"/>
<path d="M1013 2905 c0 -7 6 -11 14 -8 7 3 13 6 13 8 0 2 -6 5 -13 8 -8 3 -14
-1 -14 -8z"/>
<path d="M927 2859 c7 -7 15 -10 18 -7 3 3 -2 9 -12 12 -14 6 -15 5 -6 -5z"/>
<path d="M822 2831 c-11 -7 -11 -9 0 -14 9 -3 15 1 15 9 0 8 -1 14 -1 14 -1 0
-7 -4 -14 -9z"/>
<path d="M818 2793 c7 -3 16 -2 19 1 4 3 -2 6 -13 5 -11 0 -14 -3 -6 -6z"/>
<path d="M1808 2773 c7 -3 16 -2 19 1 4 3 -2 6 -13 5 -11 0 -14 -3 -6 -6z"/>
<path d="M1930 2745 c-10 -12 -10 -15 4 -15 9 0 16 7 16 15 0 8 -2 15 -4 15
-2 0 -9 -7 -16 -15z"/>
<path d="M2113 2743 c9 -2 25 -2 35 0 9 3 1 5 -18 5 -19 0 -27 -2 -17 -5z"/>
<path d="M2248 2743 c7 -3 16 -2 19 1 4 3 -2 6 -13 5 -11 0 -14 -3 -6 -6z"/>
<path d="M2445 1960 c-3 -5 1 -10 9 -10 8 0 18 5 21 10 3 6 -1 10 -9 10 -8 0
-18 -4 -21 -10z"/>
<path d="M2735 1950 c28 -12 37 -12 30 0 -3 6 -16 10 -28 9 -21 0 -21 -1 -2
-9z"/>
<path d="M2660 1670 c-9 -6 -10 -10 -3 -10 6 0 15 5 18 10 8 12 4 12 -15 0z"/>
<path d="M2653 1643 c-22 -8 -14 -19 15 -21 15 -1 23 2 17 6 -5 4 -12 10 -15
13 -3 4 -11 4 -17 2z"/>
<path d="M2660 1580 c-21 -16 -22 -21 -10 -29 8 -5 17 -8 21 -5 4 2 6 -3 5
-11 -1 -14 13 -21 16 -7 1 4 8 14 16 22 13 13 12 15 -9 20 -23 6 -23 6 -4 18
14 8 16 11 5 11 -8 1 -26 -8 -40 -19z"/>
<path d="M2715 1530 c-3 -6 1 -7 9 -4 18 7 21 14 7 14 -6 0 -13 -4 -16 -10z"/>
<path d="M2742 1505 c-11 -12 -10 -15 3 -15 8 0 15 7 15 15 0 18 -2 18 -18 0z"/>
<path d="M2743 1468 c-14 -18 -12 -48 3 -48 7 0 17 -7 22 -16 8 -15 11 -15 38
1 16 9 20 14 10 10 -17 -5 -17 -4 -5 12 13 15 12 16 -9 11 -12 -4 -20 -2 -16
3 3 5 1 9 -5 9 -6 0 -8 7 -5 15 7 18 -19 20 -33 3z"/>
<path d="M1780 1262 c0 -12 58 -34 77 -29 13 3 8 8 -19 20 -41 18 -58 21 -58
9z"/>
<path d="M2890 1220 c0 -5 7 -10 16 -10 8 0 12 5 9 10 -3 6 -10 10 -16 10 -5
0 -9 -4 -9 -10z"/>
<path d="M1655 1200 c3 -5 11 -10 16 -10 6 0 7 5 4 10 -3 6 -11 10 -16 10 -6
0 -7 -4 -4 -10z"/>
<path d="M1695 1190 c-3 -5 0 -19 8 -30 13 -19 13 -19 31 2 15 17 16 22 5 29
-19 12 -36 11 -44 -1z"/>
<path d="M2020 1180 c20 -13 33 -13 25 0 -3 6 -14 10 -23 10 -15 0 -15 -2 -2
-10z"/>
<path d="M1795 1162 c6 -5 21 -13 35 -17 17 -5 22 -4 15 3 -5 5 -21 13 -35 17
-17 5 -22 4 -15 -3z"/>
<path d="M1998 1133 c7 -3 16 -2 19 1 4 3 -2 6 -13 5 -11 0 -14 -3 -6 -6z"/>
<path d="M1871 1117 c-9 -12 -8 -16 3 -20 19 -7 27 4 17 21 -6 10 -10 10 -20
-1z"/>
<path d="M1756 1103 c-11 -11 -6 -23 9 -23 8 0 15 4 15 9 0 13 -16 22 -24 14z"/>
<path d="M2040 1095 c0 -8 -3 -14 -7 -14 -21 3 -23 -4 -6 -31 10 -17 24 -29
33 -28 16 4 42 -19 60 -51 8 -16 20 -21 50 -21 37 0 39 2 28 19 -6 10 -29 25
-50 32 -22 7 -50 26 -64 43 -20 27 -22 33 -9 42 17 13 9 24 -17 24 -10 0 -18
-7 -18 -15z"/>
<path d="M2118 1103 c-3 -4 0 -21 7 -37 12 -28 12 -28 18 -5 6 24 -16 60 -25
42z"/>
<path d="M2770 712 c0 -4 15 -8 33 -9 26 -2 28 0 12 7 -26 11 -45 12 -45 2z"/>
<path d="M3040 689 c0 -11 4 -18 10 -14 5 3 7 12 3 20 -7 21 -13 19 -13 -6z"/>
<path d="M3213 650 c-13 -5 -23 -17 -23 -27 0 -11 3 -14 8 -7 4 5 17 10 30 10
12 0 22 3 22 7 0 4 0 12 0 17 0 12 -7 12 -37 0z"/>
<path d="M3091 602 c-1 -9 -8 -11 -22 -7 -15 5 -20 3 -17 -6 6 -19 55 -41 76
-36 14 4 14 6 -5 12 -12 4 -24 17 -26 29 -2 11 -5 15 -6 8z"/>
<path d="M3210 601 c0 -5 -10 -13 -22 -17 -21 -6 -21 -7 -3 -20 27 -20 32 -18
32 16 0 17 -2 30 -4 30 -1 0 -3 -4 -3 -9z"/>
<path d="M3110 590 c0 -7 24 -20 36 -20 13 0 1 19 -16 23 -11 3 -20 2 -20 -3z"/>
<path d="M3230 560 c0 -5 5 -10 10 -10 6 0 10 5 10 10 0 6 -4 10 -10 10 -5 0
-10 -4 -10 -10z"/>
<path d="M3430 560 c-13 -8 -12 -10 3 -10 9 0 16 -3 16 -7 -4 -24 5 -30 49
-29 59 1 71 16 29 38 -36 19 -75 22 -97 8z"/>
<path d="M3815 560 c-4 -6 5 -10 20 -10 15 0 24 4 20 10 -3 6 -12 10 -20 10
-8 0 -17 -4 -20 -10z"/>
<path d="M3810 530 c0 -5 5 -10 10 -10 6 0 10 5 10 10 0 6 -4 10 -10 10 -5 0
-10 -4 -10 -10z"/>
<path d="M3480 500 c0 -5 5 -10 10 -10 6 0 10 5 10 10 0 6 -4 10 -10 10 -5 0
-10 -4 -10 -10z"/>
<path d="M4088 453 c6 -2 18 -2 25 0 6 3 1 5 -13 5 -14 0 -19 -2 -12 -5z"/>
<path d="M4340 382 c0 -4 -25 -6 -55 -4 -45 3 -56 0 -61 -13 -10 -25 16 -37
43 -20 32 22 50 19 29 -4 -10 -11 -13 -22 -8 -25 6 -3 8 -14 5 -25 -3 -11 2
-21 11 -24 9 -4 16 -2 16 3 0 6 7 10 15 10 8 0 15 6 15 14 0 23 -18 28 -29 9
-6 -10 -10 -13 -10 -8 0 14 25 46 31 40 3 -3 18 0 34 6 16 7 34 13 39 13 6 1
10 8 10 16 0 10 -13 16 -42 18 -24 2 -43 -1 -43 -6z"/>
<path d="M3785 370 c-3 -5 1 -10 10 -10 9 0 13 5 10 10 -3 6 -8 10 -10 10 -2
0 -7 -4 -10 -10z"/>
<path d="M5230 340 c-8 -15 -16 -17 -33 -11 -12 4 -35 6 -50 5 -16 -2 -39 1
-51 6 -31 11 -55 -4 -30 -19 15 -8 16 -12 6 -19 -11 -7 -10 -11 5 -16 10 -4
20 -7 22 -6 2 1 7 -4 12 -11 6 -11 9 -10 14 3 4 9 14 14 23 11 10 -2 34 7 54
21 20 13 44 26 54 28 25 4 28 23 4 25 -11 1 -25 -7 -30 -17z"/>
<path d="M142 334 c-12 -8 -22 -21 -22 -28 0 -8 -11 -17 -25 -20 -14 -4 -25
-13 -25 -21 0 -19 11 -19 36 0 10 8 29 15 41 15 35 0 53 11 53 31 0 13 -7 19
-21 19 -11 0 -17 5 -14 10 9 14 3 13 -23 -6z"/>
<path d="M4498 343 c7 -3 16 -2 19 1 4 3 -2 6 -13 5 -11 0 -14 -3 -6 -6z"/>
<path d="M1025 310 c-3 -5 1 -10 9 -10 8 0 18 5 21 10 3 6 -1 10 -9 10 -8 0
-18 -4 -21 -10z"/>
<path d="M2300 305 c-23 -13 -23 -14 -4 -15 11 0 29 7 40 15 26 19 -1 20 -36
0z"/>
<path d="M5850 311 c0 -5 -10 -7 -22 -4 -19 3 -20 2 -7 -6 18 -11 62 -3 53 10
-7 12 -24 12 -24 0z"/>
<path d="M4375 291 c-3 -5 0 -13 6 -17 7 -4 9 -3 5 4 -3 6 2 13 11 15 16 4 16
5 1 6 -9 0 -19 -3 -23 -8z"/>
<path d="M919 264 c-12 -14 -11 -16 5 -13 11 2 21 10 24 17 5 17 -13 15 -29
-4z"/>
<path d="M2536 272 c-18 -4 -18 -5 4 -17 25 -13 60 -9 60 7 0 6 -8 7 -17 4 -9
-4 -19 -3 -22 2 -3 4 -15 6 -25 4z"/>
<path d="M2460 266 c0 -9 30 -14 35 -6 4 6 -3 10 -14 10 -12 0 -21 -2 -21 -4z"/>
<path d="M7036 238 c-7 -28 7 -43 31 -34 17 7 17 8 -1 21 -10 8 -15 18 -11 24
3 6 2 11 -3 11 -5 0 -12 -10 -16 -22z"/>
<path d="M6780 216 c0 -9 5 -16 10 -16 6 0 10 -12 10 -27 0 -19 3 -24 9 -15 5
9 17 11 37 6 l29 -7 -30 24 c-65 53 -65 53 -65 35z"/>
<path d="M2478 213 c6 -2 18 -2 25 0 6 3 1 5 -13 5 -14 0 -19 -2 -12 -5z"/>
<path d="M6930 210 c0 -5 7 -7 15 -4 8 4 15 8 15 10 0 2 -7 4 -15 4 -8 0 -15
-4 -15 -10z"/>
<path d="M255 200 c3 -5 8 -10 11 -10 2 0 4 5 4 10 0 6 -5 10 -11 10 -5 0 -7
-4 -4 -10z"/>
<path d="M2369 208 c-1 -2 -2 -14 -3 -28 -2 -23 2 -25 41 -26 38 -1 41 1 31
15 -24 31 -62 53 -69 39z"/>
<path d="M1410 170 c-16 -4 -25 -13 -25 -25 0 -24 -23 -44 -50 -45 -30 -1 -56
-25 -49 -44 8 -20 43 -21 50 -1 4 9 31 32 60 51 30 20 56 39 58 42 8 14 -20
28 -44 22z"/>
<path d="M7162 173 c-19 -7 -4 -23 24 -23 27 0 32 15 8 24 -9 3 -16 6 -17 5
-1 0 -8 -3 -15 -6z"/>
<path d="M3160 161 c0 -5 7 -12 16 -15 22 -9 24 -8 24 9 0 8 -9 15 -20 15 -11
0 -20 -4 -20 -9z"/>
<path d="M4557 159 c7 -7 15 -10 18 -7 3 3 -2 9 -12 12 -14 6 -15 5 -6 -5z"/>
<path d="M5470 160 c0 -5 5 -10 10 -10 6 0 10 5 10 10 0 6 -4 10 -10 10 -5 0
-10 -4 -10 -10z"/>
<path d="M7355 160 c-3 -5 1 -10 9 -10 9 0 16 5 16 10 0 6 -4 10 -9 10 -6 0
-13 -4 -16 -10z"/>
<path d="M3952 146 c-18 -6 -30 -15 -25 -19 4 -5 0 -5 -8 -2 -11 4 -23 -4 -37
-27 l-22 -33 0 26 c0 25 -3 27 -57 31 -32 3 -65 8 -74 12 -11 5 -18 1 -22 -13
-6 -26 -73 -44 -144 -39 -29 2 -53 -1 -53 -5 0 -4 -19 -8 -42 -8 -53 1 -88 -2
-88 -7 0 -16 25 -42 40 -42 11 0 20 -4 20 -10 0 -6 27 -10 63 -10 35 0 57 4
49 8 -10 7 -8 13 7 26 24 22 96 33 115 17 8 -6 51 -16 97 -21 102 -12 128 -12
112 -2 -15 9 46 53 73 53 44 1 134 -14 134 -22 0 -5 14 -6 31 -2 21 4 34 1 40
-8 4 -8 14 -14 21 -15 33 -3 38 -5 38 -15 0 -8 -4 -8 -12 -1 -9 7 -17 6 -26
-4 -11 -12 -6 -14 28 -14 22 0 46 5 53 10 7 6 23 19 37 30 25 19 25 19 3 20
-12 0 -34 -5 -50 -11 -15 -5 -25 -7 -21 -3 15 15 -21 32 -65 31 -25 -1 -45 2
-44 7 1 5 -15 14 -35 20 -20 6 -43 17 -50 24 -6 6 -20 12 -29 12 -10 0 -19 4
-21 9 -1 4 -18 3 -36 -3z"/>
<path d="M3126 135 c-3 -8 -13 -15 -23 -15 -10 0 -27 -7 -37 -15 -11 -8 -29
-12 -40 -9 -15 3 -29 -3 -45 -20 -15 -16 -40 -28 -65 -31 -26 -4 -47 -14 -54
-26 -12 -18 -9 -19 52 -19 52 0 67 4 75 18 7 13 13 14 21 5 8 -7 22 -8 41 -3
16 5 31 9 34 10 18 3 41 15 47 24 13 19 8 32 -6 13 -14 -18 -46 -23 -46 -7 0
6 6 10 13 10 7 0 18 9 25 20 7 11 19 20 27 20 8 0 15 5 15 10 0 6 -5 10 -11
10 -5 0 -7 5 -4 10 3 6 2 10 -3 10 -6 0 -12 -7 -16 -15z"/>
<path d="M5551 136 c-7 -8 3 -11 34 -11 44 1 76 14 39 16 -10 1 -29 3 -41 4
-13 1 -27 -3 -32 -9z"/>
<path d="M3505 130 c-3 -5 -1 -10 4 -10 6 0 11 5 11 10 0 6 -2 10 -4 10 -3 0
-8 -4 -11 -10z"/>
<path d="M5106 133 c-14 -15 -4 -33 19 -33 17 0 23 4 19 14 -6 16 -29 28 -38
19z"/>
<path d="M4980 111 c0 -5 7 -12 16 -15 14 -5 15 -4 4 9 -14 17 -20 19 -20 6z"/>
<path d="M5060 116 c0 -2 7 -7 16 -10 8 -3 12 -2 9 4 -6 10 -25 14 -25 6z"/>
<path d="M7550 102 c0 -8 9 -16 20 -19 11 -3 18 -9 15 -13 -8 -13 46 -59 75
-65 26 -5 33 8 15 31 -18 24 -19 51 -2 57 26 9 -5 20 -63 21 -44 1 -60 -3 -60
-12z"/>
<path d="M4582 92 l-22 -17 28 -17 c28 -17 31 -17 67 1 35 17 37 19 19 28 -39
21 -69 22 -92 5z"/>
<path d="M4912 85 c-8 -17 -8 -25 -1 -25 6 0 7 -5 3 -11 -3 -6 5 -3 20 6 15
10 26 13 26 6 0 -6 7 -11 16 -11 8 0 13 -4 10 -9 -3 -5 1 -14 9 -21 8 -7 15
-9 15 -4 0 5 4 3 9 -5 5 -7 14 -10 20 -7 6 4 9 11 6 16 -3 5 -1 11 4 15 17 10
1 32 -22 30 -12 -1 -27 3 -34 9 -34 30 -43 36 -56 36 -8 0 -19 -11 -25 -25z"/>
<path d="M6640 103 c8 -3 18 -11 22 -17 4 -6 10 -7 15 -3 9 10 -16 27 -37 26
-13 -1 -13 -1 0 -6z"/>
<path d="M5296 92 c-3 -4 10 -14 28 -20 32 -12 57 -51 33 -53 -14 -1 23 -17
41 -18 6 -1 11 2 10 7 -1 4 3 17 10 29 13 24 0 33 -55 38 -18 1 -39 7 -47 14
-8 7 -17 8 -20 3z"/>
<path d="M7373 93 c-15 -6 -17 -43 -3 -43 12 0 24 25 18 38 -1 5 -9 7 -15 5z"/>
<path d="M7400 80 c0 -5 7 -10 16 -10 8 0 12 5 9 10 -3 6 -10 10 -16 10 -5 0
-9 -4 -9 -10z"/>
<path d="M6595 65 c-5 -2 -30 -6 -55 -9 -36 -5 -48 -12 -57 -33 l-12 -26 67 7
c37 3 74 6 83 6 9 0 19 10 22 22 8 29 -15 44 -48 33z"/>
<path d="M5125 50 c-3 -5 1 -10 9 -10 9 0 16 5 16 10 0 6 -4 10 -9 10 -6 0
-13 -4 -16 -10z"/>
<path d="M6428 52 c-1 -4 -19 -17 -38 -30 -32 -20 -33 -22 -11 -22 32 0 101
21 101 31 0 5 -9 13 -19 19 -23 12 -28 12 -33 2z"/>
<path d="M7201 51 c-16 -10 -6 -31 15 -31 8 0 14 -4 14 -10 0 -5 12 -10 26
-10 21 0 25 4 21 20 -3 11 -1 20 5 20 5 0 6 4 3 10 -8 12 -65 13 -84 1z"/>
<path d="M7822 53 c-10 -4 -10 -8 -1 -19 14 -17 29 -18 29 -3 0 5 -5 7 -12 3
-8 -5 -9 -2 -5 9 3 10 5 17 4 16 -1 0 -8 -3 -15 -6z"/>
<path d="M5085 40 c-3 -5 1 -10 9 -10 9 0 16 5 16 10 0 6 -4 10 -9 10 -6 0
-13 -4 -16 -10z"/>
<path d="M7080 40 c0 -5 5 -10 10 -10 6 0 10 5 10 10 0 6 -4 10 -10 10 -5 0
-10 -4 -10 -10z"/>
<path d="M1107 34 c-4 -4 -30 -12 -59 -20 l-53 -12 42 -1 c43 -1 93 16 93 31
0 9 -14 11 -23 2z"/>
<path d="M5611 20 l-23 -20 68 1 c58 0 65 2 44 11 -14 5 -33 14 -42 19 -22 11
-19 12 -47 -11z"/>
<path d="M2380 10 c0 -5 5 -10 11 -10 5 0 7 5 4 10 -3 6 -8 10 -11 10 -2 0 -4
-4 -4 -10z"/>
<path d="M7013 3 c9 -2 25 -2 35 0 9 3 1 5 -18 5 -19 0 -27 -2 -17 -5z"/>
</g>
</svg>
